<svg width="70" height="39" viewBox="0 0 70 39" fill="none" xmlns="http://www.w3.org/2000/svg">
<path d="M68.7983 31.2007H1.84277V31.4923H68.7983V31.2007Z" fill="#409629"></path>
<path d="M4.84086 10.6356C4.84086 12.2337 5.1908 12.8636 6.35727 12.8636C7.81536 12.8636 8.52691 11.5688 8.52691 9.7141C8.52691 7.80109 7.57041 6.77459 5.48242 6.77459C5.28412 6.77459 5.07415 6.77459 4.84086 6.79792V10.6356ZM5.29578 6.24968C7.22046 6.24968 7.93201 5.3165 7.93201 3.48514C7.93201 1.95706 7.15048 0.86058 5.54074 0.86058C4.89918 0.86058 4.84086 0.942233 4.84086 1.23385V6.23802C5.00417 6.22635 5.15581 6.24968 5.29578 6.24968ZM0.0116648 13.0385C1.48142 13.0152 1.83136 12.607 1.83136 11.2422V2.37699C1.83136 1.07054 1.51641 0.720602 0.0116648 0.697273V0.277344C1.0265 0.358997 1.8197 0.393991 2.4146 0.393991C3.61606 0.393991 4.74754 0.277344 5.77404 0.277344C9.36677 0.277344 11.1281 1.3155 11.1281 3.41515C11.1281 5.01322 9.92668 6.07471 7.58207 6.40132C10.4166 6.75127 11.968 7.87108 11.968 9.93573C11.968 12.2453 10.0317 13.4935 6.2173 13.4935C5.14414 13.4935 3.94268 13.4002 2.62456 13.4002C1.83136 13.4002 0.956507 13.4352 0 13.4935V13.0385H0.0116648Z" fill="#409629"></path>
<path d="M18.3605 8.24409V7.83583C18.3605 6.47106 18.0222 5.38624 16.949 5.38624C15.8642 5.38624 15.3626 6.89099 15.316 8.24409H18.3605ZM20.7167 11.1719C20.3901 12.0351 18.8387 13.6565 16.914 13.6565C14.3011 13.6565 12.4814 11.8835 12.4814 9.38724C12.4814 6.80933 14.3128 4.96631 17.0773 4.96631C19.3986 4.96631 20.7751 6.36607 20.7751 8.65236V8.75734H15.316C15.316 8.88565 15.2926 9.2006 15.2926 9.31725C15.2926 11.4052 16.1792 12.3734 17.7422 12.3734C19.1187 12.3734 20.0868 11.3702 20.4368 10.9503L20.7167 11.1719Z" fill="#409629"></path>
<path d="M36.2189 8.24409V7.83583C36.2189 6.47106 35.8806 5.38624 34.8074 5.38624C33.7226 5.38624 33.221 6.89099 33.1744 8.24409H36.2189ZM38.5751 11.1719C38.2485 12.0351 36.6971 13.6565 34.7724 13.6565C32.1595 13.6565 30.3398 11.8835 30.3398 9.38724C30.3398 6.80933 32.1712 4.96631 34.9474 4.96631C37.2687 4.96631 38.6451 6.36607 38.6451 8.65236V8.75734H33.186C33.186 8.88565 33.1627 9.2006 33.1627 9.31725C33.1627 11.4052 34.0492 12.3734 35.6123 12.3734C36.9887 12.3734 37.9569 11.3702 38.3068 10.9503L38.5751 11.1719Z" fill="#409629"></path>
<path d="M21.5796 5.67866H20.4248V5.29373C22.2562 4.96712 23.0844 4.26723 23.7026 2.40088H24.0992V5.18875H26.0472V5.67866H24.0992V11.6743C24.0992 12.3042 24.2275 12.6308 24.7524 12.6308C25.1374 12.6308 25.6739 12.3276 26.0355 11.8726L26.3155 12.1059C25.6856 13.0974 24.8924 13.6573 23.7143 13.6573C22.0579 13.6573 21.5796 12.8758 21.5796 11.1028V5.67866Z" fill="#409629"></path>
<path d="M38.4931 13.1083C39.4029 13.015 39.6595 12.8517 39.6595 12.1402V7.60259C39.6595 6.38946 39.4729 5.92287 38.5047 5.89954V5.60792C39.8112 5.50294 40.931 5.32797 41.9225 4.97803L42.0275 6.71607C42.3891 5.86455 43.5322 5.05968 44.3487 5.05968C45.3169 5.05968 45.8652 5.5496 45.8652 6.38946C45.8652 7.07768 45.4219 7.5326 44.7104 7.5326C43.8588 7.5326 43.6839 6.20282 43.2406 6.20282C42.7623 6.20282 42.1674 7.06601 42.1674 7.97586V12.2102C42.1674 12.98 42.5057 13.12 43.4622 13.12V13.4466C42.6107 13.4233 41.8058 13.4116 40.9193 13.4116C40.3594 13.4116 39.5662 13.4116 38.4697 13.4466V13.1083H38.4931Z" fill="#409629"></path>
<path d="M15.0479 27.0595C16.6343 27.0246 16.8559 26.6513 16.8559 25.1465V16.4563C16.8559 15.1499 16.7042 14.7183 15.1645 14.7183H15.0479V14.2983C16.3426 14.3333 17.4508 14.3567 18.384 14.3567C19.2938 14.3567 20.4253 14.3333 21.7434 14.2983V14.7183H21.5334C20.3436 14.7183 19.947 15.2082 19.947 16.4563V20.2124H25.6977V16.4563C25.6977 15.1265 25.5578 14.7416 23.8897 14.7183V14.2983C25.6161 14.3567 27.0159 14.3567 28.1007 14.3567C29.0572 14.3567 29.8854 14.3567 30.5853 14.2983V14.7183H30.5036C29.1272 14.7183 28.7772 15.1849 28.7772 16.4563V25.1465C28.7772 26.558 29.1505 27.0362 30.5853 27.0595V27.4561C29.1272 27.4212 28.0074 27.3978 27.2258 27.3978C26.351 27.3978 25.2428 27.4212 23.8897 27.4561V27.0595C25.4761 27.0246 25.6977 26.6513 25.6977 25.1465V20.8306H19.947V25.1465C19.947 26.558 20.332 27.0012 21.7551 27.0595V27.4561C20.227 27.4212 19.0955 27.3978 18.3956 27.3978C17.4858 27.3978 16.3776 27.4212 15.0595 27.4561V27.0595H15.0479Z" fill="#409629"></path>
<path d="M34.2472 22.3582C35.5769 22.3582 36.0435 20.8185 36.0435 18.2989C36.0435 16.001 35.5069 14.5195 34.2588 14.5195C32.9407 14.5195 32.4041 16.036 32.4041 18.5089C32.4158 20.9001 32.8241 22.3582 34.2472 22.3582ZM34.3288 14.0996C36.9767 14.0996 38.8431 15.8726 38.8431 18.3222C38.8431 20.9935 36.965 22.7782 34.1655 22.7782C31.5176 22.7782 29.6163 20.9701 29.6163 18.4622C29.6046 15.9543 31.5059 14.0996 34.3288 14.0996Z" fill="#409629"></path>
<path d="M38.5752 22.2302C39.5434 22.1136 39.6717 21.927 39.6717 21.0754V16.2579C39.6717 15.3247 39.5434 15.0098 38.5985 14.9865V14.6948C39.9166 14.5899 40.8848 14.4382 42.0163 14.0649L42.1329 15.8263C42.7978 14.7298 43.836 14.0649 45.0608 14.0649C46.2856 14.0649 47.0671 14.7065 47.4404 15.7563C48.1403 14.6832 49.1434 14.0649 50.3332 14.0649C52.1763 14.0649 52.8062 15.0564 52.8062 16.9928V20.9938C52.8062 21.9853 52.8645 22.1836 53.9026 22.2302V22.5802C53.1794 22.5452 52.4795 22.5219 51.7447 22.5219C50.8115 22.5219 49.96 22.5452 49.2368 22.5802V22.2536C50.0883 22.2302 50.2982 21.9736 50.2982 21.0055V16.6312C50.2982 15.663 50.0066 15.1731 49.2834 15.1731C48.2453 15.1731 47.522 16.1296 47.522 17.6227V20.9471C47.522 21.9153 47.6387 22.2186 48.4902 22.2302V22.5802C47.732 22.5452 47.0088 22.5219 46.2972 22.5219C45.4224 22.5219 44.6409 22.5452 43.9643 22.5802V22.2302C44.8158 22.2069 45.0025 21.9853 45.0025 21.0754V16.5379C45.0025 15.6047 44.7225 15.1731 43.9643 15.1731C42.9611 15.1731 42.2146 16.1413 42.2146 17.6227V20.9471C42.2146 21.857 42.3312 22.1836 43.1944 22.2302V22.5802C42.4362 22.5452 41.678 22.5219 40.8731 22.5219C39.9983 22.5219 39.2401 22.5452 38.5869 22.5802V22.2302H38.5752Z" fill="#409629"></path>
<path d="M62.4168 21.2855C62.4168 20.9122 62.4168 20.4457 62.3818 19.8857H62.7551C63.14 21.2389 64.0032 22.3353 65.4963 22.3353C66.3478 22.3353 66.8844 21.6588 66.8844 20.9122C66.8844 20.1657 66.2895 19.9441 65.2863 19.5708C63.35 18.8593 62.3701 18.381 62.3701 16.7713C62.3701 15.1615 63.4316 14.0884 65.1347 14.0884C66.1612 14.0884 66.6744 14.2284 67.6659 14.7416L67.9809 14.1817H68.3541C68.3308 14.6133 68.3308 14.9982 68.3308 15.3948C68.3308 15.7681 68.3308 16.1764 68.3541 16.643H67.9809C67.5609 15.0799 66.4644 14.5083 65.3446 14.5083C64.5747 14.5083 64.1198 15.1265 64.1198 15.8264C64.1198 16.643 64.8664 16.7363 66.1612 17.1912C67.9575 17.8094 68.809 18.661 68.809 20.0607C68.809 21.6704 67.6076 22.7903 65.6946 22.7903C64.1781 22.7903 63.7932 22.4753 63.0467 22.0437L62.7901 22.6853H62.3818C62.4168 22.1137 62.4168 21.6471 62.4168 21.2855Z" fill="#409629"></path>
<path d="M34.5389 25.7647C34.0023 25.928 33.734 26.1496 33.734 26.5812C33.734 26.8845 33.9323 27.0245 34.0956 27.0245C34.3406 27.0245 34.5272 26.8612 34.5272 26.5929V25.7647H34.5389ZM33.594 27.4911C33.1041 27.4911 32.8125 27.2111 32.8125 26.7678C32.8125 26.3479 33.1624 26.0913 33.9323 25.823L34.4106 25.6597C34.5272 25.6247 34.5855 25.5664 34.5855 25.4381V25.0298C34.5855 24.7615 34.4456 24.6332 34.2123 24.6332C33.9206 24.6332 33.8507 24.8432 33.7923 25.0181C33.7107 25.2514 33.629 25.4847 33.3141 25.4847C33.0925 25.4847 32.9408 25.3331 32.9408 25.1231C32.9408 24.7615 33.3957 24.5049 34.2006 24.5049C35.0521 24.5049 35.4837 24.7848 35.4837 25.3447V26.9895C35.4837 27.1178 35.5187 27.1761 35.6004 27.1761C35.717 27.1761 35.787 27.0945 35.8803 27.0245L35.962 27.1294C35.7987 27.3627 35.4604 27.5144 35.1804 27.5144C34.8422 27.5144 34.6555 27.3277 34.5622 27.0361C34.2706 27.3044 33.9207 27.4911 33.594 27.4911Z" fill="#409629"></path>
<path d="M35.9854 27.316C36.3703 27.281 36.4053 27.2227 36.4053 26.9427V25.2513C36.4053 24.913 36.3236 24.8197 35.9854 24.8197V24.7031C36.3703 24.6797 36.8485 24.5981 37.2451 24.4814L37.2918 25.0647C37.5484 24.6797 37.9684 24.4814 38.3999 24.4814C39.0182 24.4814 39.3331 24.8197 39.3331 25.5079V26.931C39.3331 27.211 39.3565 27.2693 39.7297 27.3043V27.4093C39.4148 27.3976 39.1348 27.386 38.8549 27.386C38.6216 27.386 38.3416 27.3976 38.015 27.4093V27.3043C38.33 27.3043 38.3999 27.2227 38.3999 26.931V25.403C38.3999 25.0297 38.26 24.8431 37.9917 24.8431C37.6067 24.8431 37.3385 25.158 37.3385 25.6596V26.9194C37.3385 27.211 37.4084 27.316 37.7351 27.316V27.421C37.3385 27.4093 37.0235 27.3976 36.8019 27.3976C36.5453 27.3976 36.277 27.4093 35.9854 27.421V27.316Z" fill="#409629"></path>
<path d="M62.5 27.316C62.8849 27.281 62.9199 27.2227 62.9199 26.9427V25.2513C62.9199 24.913 62.8383 24.8197 62.5 24.8197V24.7031C62.8849 24.6797 63.3632 24.5981 63.7598 24.4814L63.8064 25.0647C64.0631 24.6797 64.483 24.4814 64.9146 24.4814C65.5328 24.4814 65.8478 24.8197 65.8478 25.5079V26.931C65.8478 27.211 65.8711 27.2693 66.2444 27.3043V27.4093C65.9294 27.3976 65.6495 27.386 65.3695 27.386C65.1362 27.386 64.8446 27.3976 64.5297 27.4093V27.3043C64.8446 27.3043 64.9146 27.2227 64.9146 26.931V25.403C64.9146 25.0297 64.7746 24.8431 64.5063 24.8431C64.1214 24.8431 63.8531 25.158 63.8531 25.6596V26.9194C63.8531 27.211 63.9231 27.316 64.2497 27.316V27.421C63.8531 27.4093 63.5382 27.3976 63.3165 27.3976C63.0599 27.3976 62.7916 27.4093 62.5 27.421V27.316Z" fill="#409629"></path>
<path d="M41.4451 24.7851C41.0019 24.7851 40.7452 25.2751 40.7452 25.9983C40.7452 26.6865 40.9552 27.1531 41.3868 27.1531C41.8301 27.1531 42.0867 26.8848 42.0867 26.3832V25.4384C42.0867 25.0184 41.8534 24.7851 41.4451 24.7851ZM42.1217 26.9664C41.8884 27.3164 41.5618 27.4913 41.1069 27.4913C40.2553 27.4913 39.7188 26.9081 39.7188 25.9983C39.7188 25.1234 40.3486 24.4935 41.1418 24.4935C41.5384 24.4935 41.8651 24.6335 42.0984 24.8784V23.817C42.0984 23.537 41.9934 23.4903 41.5851 23.4787V23.3737C42.285 23.3504 42.7632 23.2687 43.0315 23.1987V26.8731C43.0315 27.0714 43.1715 27.1414 43.4865 27.1414V27.2464C43.0549 27.293 42.6349 27.3747 42.2033 27.503L42.1217 26.9664Z" fill="#409629"></path>
<path d="M57.4256 24.7851C56.9823 24.7851 56.7257 25.2751 56.7257 25.9983C56.7257 26.6865 56.9473 27.1531 57.3673 27.1531C57.8105 27.1531 58.0672 26.8848 58.0672 26.3832V25.4384C58.0672 25.0184 57.8339 24.7851 57.4256 24.7851ZM58.1022 26.9664C57.8689 27.3164 57.5422 27.4913 57.0873 27.4913C56.2358 27.4913 55.6992 26.9081 55.6992 25.9983C55.6992 25.1234 56.3291 24.4935 57.1223 24.4935C57.5189 24.4935 57.8455 24.6335 58.0788 24.8784V23.817C58.0788 23.537 57.9738 23.4903 57.5656 23.4787V23.3737C58.2655 23.3504 58.7437 23.2687 59.012 23.1987V26.8731C59.012 27.0714 59.152 27.1414 59.4669 27.1414V27.2464C59.0353 27.293 58.6154 27.3747 58.1838 27.503L58.1022 26.9664Z" fill="#409629"></path>
<path d="M48.2683 26.1726C48.2683 25.8926 48.1167 25.7643 47.8018 25.7643H47.7318V25.636H49.8081V25.7643C49.4348 25.7643 49.3182 25.8576 49.3182 26.1493V27.0824H49.2715C49.0732 27.0824 48.8399 27.1174 48.595 27.1991C48.2567 27.3041 47.9184 27.5024 47.2885 27.5024C45.9704 27.5024 45.0605 26.6858 45.0605 25.4844C45.0605 24.9828 45.2005 24.5395 45.4571 24.1662C45.8887 23.5713 46.507 23.2681 47.2652 23.2681C47.8601 23.2681 48.28 23.408 48.6766 23.6997C48.6766 23.6997 48.7466 23.6063 48.7933 23.5247C48.8399 23.443 48.8632 23.3381 48.8632 23.3381H49.0032L49.0382 24.5978H48.9099C48.7583 23.793 48.1517 23.4664 47.5101 23.4664C46.7053 23.4664 46.2037 24.2596 46.2037 25.461C46.2037 26.5459 46.6936 27.2924 47.4401 27.2924C47.9417 27.2924 48.28 27.0591 48.28 26.6742V26.1726H48.2683Z" fill="#409629"></path>
<path d="M26.735 5.67866H25.6152V5.29373C27.4466 4.96712 28.2748 4.26723 28.893 2.40088H29.2546V5.18875H31.2026V5.67866H29.2546V11.6743C29.2546 12.3042 29.3829 12.6308 29.9079 12.6308C30.2928 12.6308 30.8294 12.3276 31.191 11.8726L31.4709 12.1059C30.841 13.0974 30.0478 13.6573 28.8697 13.6573C27.2133 13.6573 26.735 12.8758 26.735 11.1028V5.67866Z" fill="#409629"></path>
<path d="M26.829 5.60803H25.8258C25.8258 5.60803 24.7643 5.1881 25.3009 5.1881C26.339 5.1881 27.2022 4.88482 27.7155 4.42989C28.0304 4.13827 26.829 5.60803 26.829 5.60803Z" fill="#409629"></path>
<path d="M59.3966 17.3662V16.9579C59.3966 15.5931 59.0583 14.5083 57.9852 14.5083C56.9003 14.5083 56.3988 16.0014 56.3521 17.3662H59.3966ZM61.7529 20.294C61.4263 21.1572 59.8749 22.7786 57.9502 22.7786C55.3373 22.7786 53.5176 21.0056 53.5176 18.5093C53.5176 15.9314 55.3606 14.0884 58.1251 14.0884C60.4464 14.0884 61.8229 15.4881 61.8229 17.7744V17.8794H56.3638C56.3638 18.0077 56.3404 18.3227 56.3404 18.4393C56.3404 20.5273 57.227 21.4955 58.79 21.4955C60.1665 21.4955 61.1346 20.4923 61.4846 20.0724L61.7529 20.294Z" fill="#409629"></path>
<path d="M51.5115 25.7647C50.975 25.928 50.7067 26.1496 50.7067 26.5812C50.7067 26.8845 50.905 27.0245 51.0683 27.0245C51.3132 27.0245 51.4999 26.8612 51.4999 26.5929V25.7647H51.5115ZM50.5667 27.4911C50.0768 27.4911 49.7852 27.2111 49.7852 26.7678C49.7852 26.3479 50.1351 26.0913 50.905 25.823L51.3832 25.6597C51.4999 25.6247 51.5465 25.5664 51.5465 25.4381V25.0298C51.5465 24.7615 51.4182 24.6332 51.1733 24.6332C50.8816 24.6332 50.8117 24.8432 50.7533 25.0181C50.6833 25.2514 50.59 25.4847 50.2751 25.4847C50.0651 25.4847 49.9018 25.3331 49.9018 25.1231C49.9018 24.7615 50.3567 24.5049 51.1616 24.5049C52.0131 24.5049 52.4447 24.7848 52.4447 25.3447V26.9895C52.4447 27.1178 52.4797 27.1761 52.5614 27.1761C52.678 27.1761 52.748 27.0945 52.8413 27.0245L52.9346 27.1294C52.7713 27.3627 52.4331 27.5144 52.1531 27.5144C51.8148 27.5144 51.6282 27.3277 51.5349 27.0361C51.2432 27.3044 50.905 27.4911 50.5667 27.4911Z" fill="#409629"></path>
<path d="M52.9579 27.3044C53.2845 27.2694 53.3778 27.211 53.3778 26.9661V25.403C53.3778 24.9831 53.3078 24.8198 52.9579 24.8198V24.7148C53.3895 24.6798 53.8561 24.6331 54.206 24.4932L54.2643 25.0997C54.3927 24.8081 54.8126 24.5282 55.1042 24.5282C55.4542 24.5282 55.6525 24.6915 55.6525 24.9831C55.6525 25.2164 55.4891 25.3797 55.2325 25.3797C54.9176 25.3797 54.8593 24.9131 54.6959 24.9131C54.521 24.9131 54.311 25.2047 54.311 25.5313V26.9894C54.311 27.2577 54.4277 27.3044 54.7776 27.3044V27.421C54.4627 27.4093 54.1477 27.4093 53.8211 27.4093C53.6228 27.4093 53.3312 27.4093 52.9346 27.421V27.3044H52.9579Z" fill="#409629"></path>
<path d="M61.5429 25.6246V25.4846C61.5429 25.018 61.4263 24.6331 61.0297 24.6331C60.6331 24.6331 60.4581 25.1463 60.4348 25.6246H61.5429ZM62.4061 26.6278C62.2894 26.931 61.7295 27.4909 61.0297 27.4909C60.0848 27.4909 59.4199 26.8727 59.4199 26.0095C59.4199 25.123 60.0848 24.4814 61.088 24.4814C61.9278 24.4814 62.4294 24.9714 62.4294 25.7529V25.7879H60.4464C60.4464 25.8346 60.4348 25.9395 60.4348 25.9745C60.4348 26.6977 60.7614 27.0244 61.3213 27.0244C61.8229 27.0244 62.1728 26.6744 62.3011 26.5344L62.4061 26.6278Z" fill="#409629"></path>
<path d="M66.4774 26.9777C66.4774 26.8494 66.4774 26.6861 66.4658 26.4995H66.6057C66.7457 26.9661 67.0607 27.351 67.5972 27.351C67.9122 27.351 68.0988 27.1177 68.0988 26.8611C68.0988 26.6045 67.8889 26.5228 67.5156 26.3945C66.8157 26.1496 66.4541 25.9862 66.4541 25.4263C66.4541 24.8664 66.839 24.4932 67.4573 24.4932C67.8305 24.4932 68.0172 24.5398 68.3788 24.7148L68.4954 24.5165H68.6354C68.6237 24.6681 68.6237 24.7964 68.6237 24.9364C68.6237 25.0647 68.6237 25.2047 68.6354 25.368H68.4954C68.3438 24.8314 67.9472 24.6331 67.5389 24.6331C67.259 24.6331 67.0957 24.8431 67.0957 25.0881C67.0957 25.368 67.364 25.403 67.8422 25.5547C68.4954 25.7646 68.8104 26.0679 68.8104 26.5462C68.8104 27.1061 68.3671 27.491 67.6789 27.491C67.1307 27.491 66.9907 27.386 66.7107 27.2344L66.6174 27.456H66.4658C66.4774 27.2577 66.4774 27.0944 66.4774 26.9777Z" fill="#409629"></path>
<path d="M69.5452 26.8495C69.5452 26.8378 69.5452 26.8378 69.5685 26.8378H69.5919C69.6385 26.8378 69.6735 26.8728 69.6735 26.9195C69.6735 26.9778 69.6385 27.0128 69.5802 27.0128C69.5685 27.0128 69.5685 27.0128 69.5569 27.0128V26.8495H69.5452ZM69.5452 27.0478H69.5802C69.6152 27.0478 69.6385 27.1061 69.6502 27.1411C69.6735 27.1878 69.6852 27.2344 69.7318 27.2344H69.8252V27.2111C69.7668 27.2111 69.7435 27.0361 69.6735 27.0245C69.7318 27.0128 69.7785 26.9778 69.7785 26.9195C69.7785 26.8262 69.6968 26.8028 69.6152 26.8028H69.4169V26.8378C69.4402 26.8378 69.4635 26.8378 69.4635 26.8612V27.1878C69.4635 27.2228 69.4519 27.2111 69.4169 27.2111V27.2344H69.6152V27.2111C69.5802 27.2111 69.5685 27.2111 69.5685 27.1761V27.0478H69.5452ZM69.5919 27.4327C69.8135 27.4327 70.0001 27.2461 70.0001 27.0245C70.0001 26.8028 69.8135 26.6162 69.5919 26.6162C69.3586 26.6162 69.1836 26.8028 69.1836 27.0245C69.1836 27.2461 69.3586 27.4327 69.5919 27.4327ZM69.5919 26.6745C69.7785 26.6745 69.9301 26.8262 69.9301 27.0128C69.9301 27.1994 69.7785 27.3628 69.5919 27.3628C69.3936 27.3628 69.2536 27.2111 69.2536 27.0128C69.2536 26.8262 69.3936 26.6745 69.5919 26.6745Z" fill="#409629"></path>
<path d="M2.2869 38.0592H1.82031V34.6064H2.84681C3.675 34.6064 4.11826 35.003 4.11826 35.6213C4.11826 36.1462 3.81498 36.4611 3.33673 36.6128L4.2699 38.0592H3.72166L2.8818 36.6944L2.2869 36.7294V38.0592ZM2.85847 36.2978C3.3134 36.2862 3.65167 36.0645 3.65167 35.6446C3.65167 35.2363 3.32506 35.038 2.80015 35.038H2.2869V36.3095L2.85847 36.2978Z" fill="#409629"></path>
<path d="M8.66699 38.0592V34.6064H10.8483V35.038H9.13358V36.1112H10.5683V36.5428H9.13358V37.6159H10.8483V38.0592H8.66699Z" fill="#409629"></path>
<path d="M18.0227 38.0592H17.5444L17.2178 37.1494H15.7247L15.3981 38.0592H14.9082L16.203 34.6064H16.7396L18.0227 38.0592ZM16.4713 35.0964L15.8764 36.7294H17.0662L16.4713 35.0964Z" fill="#409629"></path>
<path d="M22.1045 38.0592V34.6064H22.5711V37.6159H24.2391V38.0592H22.1045Z" fill="#409629"></path>
<path d="M33.2207 38.0592V34.6064H35.402V35.038H33.6873V36.1112H35.1221V36.5428H33.6873V37.6159H35.402V38.0592H33.2207Z" fill="#409629"></path>
<path d="M41.7245 37.1378C41.7245 36.7879 41.4563 36.6479 40.8963 36.5079C40.4064 36.3796 39.8698 36.1696 39.8698 35.4931C39.8698 34.9098 40.3364 34.5249 41.0247 34.5249C41.4213 34.5249 41.7829 34.6299 42.1095 34.8282L41.9462 35.2364C41.6779 35.0615 41.3396 34.9448 41.0247 34.9448C40.5231 34.9448 40.3248 35.1665 40.3248 35.4581C40.3248 35.808 40.6164 35.9247 41.1646 36.0763C41.6662 36.2046 42.1795 36.4496 42.1795 37.1028C42.1795 37.6977 41.6895 38.141 40.9663 38.141C40.5581 38.141 40.1498 38.0243 39.8115 37.8144L39.9632 37.3944C40.2548 37.5927 40.5697 37.721 40.978 37.721C41.4096 37.721 41.7245 37.4761 41.7245 37.1378Z" fill="#409629"></path>
<path d="M47.9073 35.0497V38.0592H47.4407V35.0497H46.2275V34.6064H49.1087V35.0497H47.9073Z" fill="#409629"></path>
<path d="M55.9094 38.0592H55.4311L55.1045 37.1494H53.6115L53.2848 38.0592H52.7949L54.0897 34.6064H54.6263L55.9094 38.0592ZM54.358 35.0964L53.7631 36.7294H54.9529L54.358 35.0964Z" fill="#409629"></path>
<path d="M61.252 35.0497V38.0592H60.7971V35.0497H59.584V34.6064H62.4652V35.0497H61.252Z" fill="#409629"></path>
<path d="M66.6055 38.0592V34.6064H68.7984V35.038H67.0837V36.1112H68.5068V36.5428H67.0837V37.6159H68.7984V38.0592H66.6055Z" fill="#409629"></path>
<path d="M4.57283 21.437C5.1794 22.2535 6.11258 23.49 6.89411 25.2747C7.73397 22.4518 9.08708 20.6438 9.89195 19.5706C10.3469 18.9524 10.7901 18.5208 11.1401 18.2175C10.2536 17.5176 9.12208 17.1094 7.90895 17.1094C5.85595 17.1094 4.08292 18.2875 3.21973 19.9906C3.593 20.2938 4.07125 20.7604 4.57283 21.437Z" fill="#409629"></path>
<path d="M11.221 20.784C11.6409 20.224 12.0258 19.8274 12.3525 19.5475C12.0608 19.0809 11.6876 18.661 11.2676 18.311C10.2061 19.4892 8.42145 22.2187 8.11816 27.5378C8.77139 24.0501 10.3578 21.9504 11.221 20.784Z" fill="#409629"></path>
<path d="M9.66992 27.3274C11.7112 26.6042 13.181 24.6562 13.181 22.3699C13.181 21.3901 12.9127 20.4802 12.4461 19.687C11.5246 20.7252 10.0549 23.0115 9.66992 27.3274Z" fill="#409629"></path>
<path d="M3.14904 20.1309C2.8341 20.8074 2.64746 21.5656 2.64746 22.3705C2.64746 24.6568 4.10555 26.5931 6.13521 27.328C5.54031 23.2803 4.05889 21.1107 3.14904 20.1309Z" fill="#409629"></path>
</svg>