<svg width="135" height="30" viewBox="0 0 135 30" fill="none" xmlns="http://www.w3.org/2000/svg">
<path d="M21.2368 13.8742C22.2532 12.6876 22.8211 11.288 22.8211 9.76673C22.8211 4.13793 18.696 0 9.84801 0C4.76638 0 1 1.49087 1 1.49087L2.31524 5.08114C2.31524 5.08114 5.03541 3.59026 9.84801 3.59026C14.6606 3.59026 19.2939 4.98986 19.2939 9.73631C19.2939 10.4361 19.1145 11.0446 18.7857 11.5314C15.1688 8.70183 10.5355 7.0284 6.88871 7.0284C4.82617 7.0284 1.71741 8.09331 1.71741 11.0751C1.71741 15.8824 8.95125 17.2211 12.7774 17.2211C14.9296 17.2211 16.8427 16.7343 18.427 15.9432C19.8917 17.5558 20.8781 19.5335 20.8781 21.8763C20.8781 25.4361 17.2014 26.2272 15.109 26.2272C9.48931 26.2272 6.26098 22.3631 5.21476 20.0811L1.80708 20.9939V29.1176H5.33433V26.1055C5.33433 26.1055 8.89147 30 15.0791 30C20.9977 30 24.5249 26.4706 24.5249 21.8763C24.5847 18.8945 23.2695 16.1258 21.2368 13.8742ZM5.42401 11.4097C5.42401 9.88844 10.9241 10.6491 15.378 13.4483C11.2529 14.2394 5.42401 12.7485 5.42401 11.4097Z" fill="#1A1A1A"></path>
<path d="M27.335 3.3471C27.335 1.85622 28.441 0.730469 29.9057 0.730469C31.3704 0.730469 32.4764 1.85622 32.4764 3.3471C32.4764 4.77712 31.3704 5.96373 29.9057 5.96373C28.441 5.9333 27.335 4.77712 27.335 3.3471ZM28.0225 29.1483V9.12803H31.6693V29.1483H28.0225Z" fill="#1A1A1A"></path>
<path d="M39.4707 25.9232H51.1584V29.1179H35.1064V25.9232L46.1366 12.3532H35.8537V9.09766H50.7698V12.0185L39.4707 25.9232Z" fill="#1A1A1A"></path>
<path d="M57.705 25.9232H69.3928V29.1179H53.3408V25.9232L64.3709 12.3532H54.0881V9.09766H69.0042V12.0185L57.705 25.9232Z" fill="#1A1A1A"></path>
<path d="M88.8225 17.7383V29.148H85.355V25.6186C83.9501 28.1744 81.4989 29.6653 78.3005 29.6653C74.2352 29.6653 71.5449 27.2616 71.5449 23.7018C71.5449 19.6855 75.0124 17.2211 80.4826 17.2211C82.0669 17.2211 83.7109 17.434 85.1756 17.8296V17.7383C85.1756 14.361 84.0398 11.9269 80.5723 11.9269C77.9119 11.9269 76.2081 13.357 76.8059 16.004H72.9797C71.9335 11.6835 75.5803 8.58008 80.6022 8.58008C86.1023 8.58008 88.8225 12.2312 88.8225 17.7383ZM85.2653 20.9026C83.9202 20.4462 82.2761 20.2332 80.7516 20.2332C77.2543 20.2332 75.3113 21.6328 75.3113 23.7626C75.3113 25.5273 76.6564 26.5314 78.8386 26.5314C82.0669 26.501 84.7273 24.3407 85.2653 20.9026Z" fill="#1A1A1A"></path>
<path d="M112.288 19.1381C112.288 25.4667 108.551 29.6655 103.35 29.6655C100.361 29.6655 98.0294 28.2963 96.5946 25.9535V29.1483H92.9478V1.12598H96.5946V12.3532C98.0593 9.97995 100.361 8.64117 103.35 8.64117C108.611 8.58032 112.288 12.84 112.288 19.1381ZM108.432 19.1381C108.432 14.7872 106.04 11.9272 102.483 11.9272C98.8664 11.9272 96.475 14.8481 96.475 19.1381C96.475 23.4282 98.8664 26.3491 102.453 26.3491C106.07 26.3491 108.432 23.4282 108.432 19.1381Z" fill="#1A1A1A"></path>
<path d="M114.35 19.1377C114.35 12.8396 118.236 8.61035 124.065 8.61035C129.894 8.61035 133.78 12.87 133.78 19.1377C133.78 25.4359 129.894 29.6651 124.065 29.6651C118.266 29.6651 114.35 25.4055 114.35 19.1377ZM129.954 19.1377C129.954 14.8172 127.622 11.9268 124.095 11.9268C120.598 11.9268 118.236 14.8172 118.236 19.1377C118.236 23.4278 120.598 26.3487 124.095 26.3487C127.622 26.3487 129.954 23.4278 129.954 19.1377Z" fill="#1A1A1A"></path>
</svg>