<svg width="180" height="40" viewBox="0 0 180 40" fill="none" xmlns="http://www.w3.org/2000/svg">
<path d="M100.008 11.4406C100.008 11.9387 100.617 12.2985 101.198 12.2985C101.751 12.2985 102.388 11.9664 102.388 11.4406V5.02061C102.388 2.69612 103.965 1.39551 105.819 1.39551H108.227V12.6029C108.227 14.4846 106.843 15.9789 105.183 16.6154C102.554 17.4456 99.5097 17.1965 97.5172 15.1487C95.6078 17.2795 92.8129 17.2795 90.4054 16.8921C88.496 16.6154 86.4482 14.955 86.4482 12.5752V1.42318H92.1211V11.1639C92.1211 11.9111 92.7299 12.2155 93.311 12.2155C93.7815 12.2155 94.4733 11.9664 94.4733 11.3023V1.42318C94.5009 1.42318 100.091 1.42318 100.008 1.42318V11.4406Z" fill="#134B8E"></path>
<path d="M128.565 5.29701C128.787 7.37245 128.095 8.64539 127.376 9.39255C126.462 10.3334 125.328 10.8315 123.778 10.8315H120.015C117.828 10.8315 116.417 9.3372 116.417 7.37245V6.95736H121.952C122.394 6.95736 122.671 6.59762 122.671 6.23788C122.671 5.87814 122.45 5.46305 121.841 5.46305H118.603C116.639 5.46305 115.338 6.76366 115.366 8.59004C115.393 10.2504 116.528 12.3258 119.461 12.3258H129.755V1.39519H135.511V12.1875H143.398V1.39519H149.181V12.1875H157.04C157.04 14.761 155.629 17.0578 153.111 17.0578H147.521C145.003 17.0578 143.398 15.0931 143.398 12.8516C143.398 15.0931 141.682 17.0578 139.33 17.0578H134.017C131.831 17.0578 129.783 15.2868 129.755 12.907C129.423 14.7333 127.293 17.0302 125.106 17.0578C125.134 17.0578 116.722 17.0578 116.694 17.0578C113.927 17.0578 111.408 14.927 110.191 12.3258C109.222 10.0567 109.388 7.09573 110.634 5.02029C111.768 2.75114 114.48 1.33984 117.026 1.33984L124.359 1.36752C126.379 1.39519 128.289 3.35994 128.565 5.29701Z" fill="#134B8E"></path>
<path fill-rule="evenodd" clip-rule="evenodd" d="M69.7608 12.1321H61.8741V1.42285H55.6201V13.0453C55.6201 15.0654 57.5295 17.0855 59.9924 17.0855H65.2778C67.7407 17.0855 69.318 15.1207 69.7608 13.1007V17.0855H78.0349C82.5178 17.0855 85.6725 13.2944 85.6725 8.9221C85.6725 4.60519 82.4625 1.42285 77.8135 1.42285H69.7608V12.1321ZM80.2766 9.00463C80.2766 7.15057 79.0867 5.79462 76.9836 5.79462H75.1572V12.0763H77.039C78.81 12.0763 80.2766 10.8033 80.2766 9.00463Z" fill="#134B8E"></path>
<path d="M84.7595 19.438V23.8102L88.8274 19.438H95.7178C95.7178 19.438 89.1041 26.6052 89.0764 26.6328H91.2625C91.2625 26.6328 95.7178 34.6025 97.8209 38.6427H91.3456C91.3456 38.6427 86.2815 29.6768 86.2815 29.6491L84.7595 31.2542V35.1837C84.7595 35.1837 78.8099 35.1837 78.7822 35.1837V19.438H84.7595V19.438Z" fill="#134B8E"></path>
<path fill-rule="evenodd" clip-rule="evenodd" d="M155.434 21.181C155.434 20.0465 155.047 19.5207 153.719 19.4653H139.689C138.831 19.4653 138.194 19.8251 138.194 20.9596V33.8274C138.194 34.8236 138.831 35.294 139.716 35.294H153.912C154.687 35.2663 155.434 34.7682 155.434 33.6613V21.181ZM144.809 21.5413C143.148 21.5413 141.433 22.9249 141.46 25.4431C141.433 27.9337 143.065 29.428 144.919 29.428H148.074V27.1865H144.919V23.6998H147.991V21.5413H144.809ZM151.865 25.5812C151.422 24.6403 150.73 24.3359 149.125 24.3359L145.583 24.3636V26.522H148.738V30.0641H145.5V32.3609H149.097C150.149 32.3609 150.951 32.3333 151.505 31.8075C152.252 31.088 152.169 29.6214 151.699 29.0126C151.201 28.3484 150.592 28.3208 150.592 28.3208C150.592 28.3208 151.034 28.2377 151.422 27.9057C152.031 27.3522 152.169 26.2176 151.865 25.5812Z" fill="#134B8E"></path>
<path fill-rule="evenodd" clip-rule="evenodd" d="M59.6894 19.4372V34.2973L53.0203 19.3818H50.253C48.7587 19.4095 47.6518 19.9353 47.043 21.3189L40.9551 35.1828H46.3512C46.3235 35.1828 48.0116 31.5301 48.0116 31.5301C48.7587 34.1036 50.8895 35.1828 52.5222 35.1828H65.888V29.0395C65.888 29.0395 68.7383 32.803 70.5093 34.4357C71.2565 35.0721 71.9206 35.1828 73.8854 35.1828H76.791V19.4372H70.8691V26.5213C68.932 24.2245 66.9949 21.8447 65.1409 19.4372H59.6894ZM48.6748 30.064H51.7465L50.2245 26.7156L48.6748 30.064Z" fill="#134B8E"></path>
<path fill-rule="evenodd" clip-rule="evenodd" d="M40.815 23.2291C41.0087 24.9725 40.0125 26.2178 39.0993 26.8265C40.7596 27.6014 41.3961 29.068 41.3408 30.673C41.2854 32.4994 40.0678 35.156 35.6402 35.156H25.2354V19.438H35.1975C38.2414 19.438 40.4552 20.3789 40.815 23.2291ZM34.4792 23.5058C35.0327 23.5058 35.3648 23.7549 35.3648 24.2253C35.3648 24.7511 34.9497 24.8894 34.5346 24.8894H31.1309V23.5058H34.4792ZM34.7547 30.2578C35.1974 30.2855 35.4465 30.0365 35.4741 29.649C35.4741 29.1786 35.2251 28.8742 34.7547 28.8742H31.1572V30.2578H34.7547Z" fill="#134B8E"></path>
<path fill-rule="evenodd" clip-rule="evenodd" d="M53.6837 13.2942C55.1226 10.776 55.0673 7.39995 53.6006 5.04778C52.6044 3.2214 50.3353 1.58872 48.2045 1.17363C45.3819 0.564835 42.3379 1.58872 40.4562 3.74717C38.4084 5.9333 37.7996 9.42004 38.9065 12.1596H30.8815C29.2765 12.1596 28.0866 10.8313 28.0866 8.89426C28.0866 6.8465 29.4979 5.76727 30.8538 5.76727H37.6059V1.39501H30.7431C27.5331 1.39501 25.4024 2.86165 24.0187 5.32451C22.7458 7.56598 22.6074 10.9697 23.9357 13.2112C25.1256 15.2589 27.3394 16.6979 29.4149 17.0023C33.1507 17.2237 37.6336 17.279 39.543 13.4602C40.7329 15.425 42.7253 16.8639 44.9668 17.279C48.5919 17.9155 51.8296 16.3935 53.6837 13.2942ZM49.532 9.22643C49.532 10.8868 48.176 12.2151 46.5433 12.2151C44.9106 12.2151 43.5824 10.8868 43.5547 9.22643C43.5547 7.56607 44.9106 6.23779 46.5433 6.23779C48.2037 6.23779 49.532 7.59375 49.532 9.22643Z" fill="#134B8E"></path>
<path fill-rule="evenodd" clip-rule="evenodd" d="M100.755 25.5258C100.755 27.7119 102.498 28.9848 104.352 28.9848L108.033 28.9572C109.499 28.9572 110.689 28.5697 111.63 27.6289C112.488 26.771 113.069 25.4981 112.82 23.5057C112.543 21.5686 110.606 19.5485 108.614 19.5485H102.083C99.205 19.5485 96.2164 20.5724 94.8881 23.229C93.6428 25.3044 93.5321 28.3207 94.5283 30.5622C95.7459 33.1357 98.2365 35.2942 101.031 35.2942H109.444C111.685 35.2942 113.733 32.9974 114.12 31.171V35.2942H119.876V27.4352L124.94 35.2942H131.526L127.348 28.5697C127.348 28.5697 128.649 28.4037 129.589 27.6289C130.558 26.771 131.111 25.6918 131.111 23.7824C131.084 21.3749 128.925 19.4932 126.13 19.4932H114.065L114.093 30.5345L103.882 30.5068C101.391 30.5068 99.6754 29.0402 99.6478 26.7987C99.6478 24.9723 100.948 23.6164 102.996 23.6164H106.178C106.76 23.6164 106.981 24.0038 106.981 24.3635C106.981 24.7233 106.732 25.1107 106.206 25.1107H100.755V25.5258ZM125.327 24.2521C125.327 23.8923 125.078 23.5879 124.525 23.5879V23.5602H119.903V24.9439H124.525C125.106 24.9439 125.327 24.5841 125.327 24.2521Z" fill="#134B8E"></path>
</svg>