<svg width="129" height="35" viewBox="0 0 129 35" fill="none" xmlns="http://www.w3.org/2000/svg">
<path d="M126.278 16.2258C123.868 19.0532 122.394 19.9356 120.937 19.9356C120.313 19.9356 119.897 19.3954 119.897 18.7291C119.897 17.6485 120.729 15.6856 123.035 10.7692C124.405 7.50963 126.174 4.12399 126.174 2.70131C126.174 2.2691 125.966 1.49472 125.237 1.49472C123.14 1.49472 118.84 6.6092 115.476 13.2544C114.435 15.2174 113.586 17.2884 112.858 19.4674H110.344L113.915 10.7512C116.013 5.74478 116.95 3.34962 116.95 2.25109C116.95 1.92693 116.742 1.60278 116.429 1.60278C115.909 1.60278 114.956 2.25109 113.291 4.5382L113.083 4.32209C115.372 1.08052 117.036 0 118.406 0C119.134 0 119.446 0.540261 119.446 1.53074C119.446 2.84538 118.406 5.9969 116.083 11.1114C118.926 6.10495 123.434 0 127.006 0C128.168 0 128.792 0.648314 128.792 1.8549C128.792 3.27759 127.63 5.9969 125.532 10.5711C123.642 14.7131 122.706 16.6761 122.706 17.4324C122.706 17.8646 122.914 18.0807 123.33 18.0807C123.746 18.0807 124.596 17.6485 126.052 15.9017L126.278 16.2258ZM104.674 0.324157C100.478 0.324157 93.0395 12.8582 93.0395 16.7661C93.0395 18.4049 93.7677 19.1613 94.8254 19.1613C98.9173 19.1613 106.564 6.30305 106.564 2.37715C106.564 0.97247 105.922 0.324157 104.674 0.324157ZM107.292 15.7936C105.194 18.513 102.888 19.9356 101.726 19.9356C101.102 19.9356 100.686 19.6115 100.686 18.9632C100.686 17.6485 101.102 15.8116 102.68 12.2099C99.5415 17.0002 96.594 19.9356 93.4556 19.9356C91.5657 19.9356 90.3173 18.8551 90.3173 16.6761C90.196 11.4355 98.9 0 104.882 0C106.252 0 106.98 0.756366 107.5 1.8549L108.124 0.432209H110.534L106.234 9.90479C104.032 14.6951 103.2 16.8742 103.2 17.5225C103.2 18.1708 103.408 18.2788 103.824 18.2788C104.24 18.2788 105.61 17.1983 106.963 15.5595L107.171 15.7756H107.292V15.7936ZM70.7939 0.324157C66.9101 0.216105 61.8819 12.0838 61.8819 16.442C61.8819 18.1888 62.506 19.4854 64.0839 19.4854C67.8637 19.4854 73.1 8.91431 73.1 3.47568C73.1 1.72884 72.7879 0.216105 70.7939 0.216105V0.324157ZM64.604 19.9356C61.2403 19.9356 60.096 16.6761 60.096 13.3985C60.096 8.39206 64.8121 0 70.5859 0C73.1 0 74.9899 1.8549 74.9899 6.53716C74.9899 11.7597 70.4819 19.9356 64.5 19.9356H64.604ZM79.8101 3.49369C81.804 1.31464 83.5899 0 84.9597 0C85.7919 0 86 0.756366 86 1.74684C86 2.50321 85.0637 5.24053 84.1101 7.52764C86.6242 2.82737 89.2597 0 91.7738 0C93.1435 0 94.0798 0.648314 94.0798 2.17905C94.0798 2.93542 93.5597 3.81785 92.7101 3.81785C92.0859 3.81785 91.5484 3.49369 91.2363 2.28711C91.1323 1.63879 90.6121 1.20658 89.9706 1.20658C88.1847 1.20658 85.4625 5.45664 83.6766 9.05838C81.8907 12.8762 80.0008 17.2343 79.1685 19.5214H76.5504L80.2262 10.6972C81.9081 6.77128 83.4859 2.97144 83.4859 2.30511C83.5206 2.10702 83.4685 1.92693 83.3472 1.76485C83.2258 1.60278 83.0524 1.53074 82.8617 1.53074C82.2375 1.53074 81.1798 2.39516 80.0355 3.70979L79.8101 3.49369ZM34.4 3.49369C36.2899 1.31464 38.0758 0 39.4282 0C40.3645 0 40.4685 0.756366 40.4685 1.74684C40.4685 2.50321 39.6363 5.24053 38.5786 7.52764C41.1101 2.82737 43.8323 0 46.2597 0C47.6294 0 48.6698 0.648314 48.6698 2.17905C48.6698 2.93542 48.0456 3.81785 47.196 3.81785C46.6758 3.81785 46.1556 3.49369 45.8262 2.28711C45.6181 1.63879 45.098 1.20658 44.4565 1.20658C42.6706 1.20658 39.9484 5.45664 38.1625 9.05838C36.3766 12.8762 34.5907 17.2343 33.6544 19.5214H31.0363L34.8161 10.6972C36.394 6.77128 37.9544 2.97144 37.9544 2.30511C38.0238 1.87291 37.8504 1.60278 37.4343 1.54875C36.8101 1.54875 35.7524 2.41317 34.6081 3.7278L34.4 3.49369ZM25.3839 0.324157C21.396 0.324157 16.4718 12.1919 16.4718 16.55C16.4718 18.2969 17.096 19.5935 18.5698 19.5935C22.4536 19.5935 27.6899 9.02236 27.6899 3.58373C27.6899 1.83689 27.2738 0.324157 25.2798 0.324157H25.3839V0.324157ZM19.0899 19.9356C15.7262 19.9356 14.5819 16.6761 14.5819 13.3985C14.6859 8.39206 19.402 0 25.1758 0C27.6899 0 29.6839 1.8549 29.6839 6.53716C29.6839 11.7597 25.1758 19.9356 19.194 19.9356H19.0899ZM54.9637 16.2258C53.3859 18.4049 51.496 19.9356 49.2939 19.9356C46.8839 19.9356 45.5141 18.4049 45.5141 15.9017C45.5141 9.90479 51.8081 0 57.894 0C59.8879 0 60.5121 1.08052 60.5121 1.8549C60.5121 2.93542 59.9919 3.60174 58.9343 3.60174C58.3101 3.60174 57.894 3.16953 57.894 2.52122C57.894 1.87291 58.4141 1.6568 58.4141 1.20658C58.4141 0.774374 58.2061 0.342165 57.6859 0.342165C55.0677 0.342165 53.0738 3.38564 52.0161 5.24053C50.6464 7.74375 47.8202 14.2809 47.8202 17.2163C47.8202 18.2968 48.4444 19.5034 49.7101 19.5034C51.496 19.5034 53.2819 17.8646 54.7383 16.0097L54.9637 16.2258ZM9.43226 16.2258C7.85444 18.4049 6.06855 19.9356 3.7625 19.9356C1.36976 19.9356 0 18.4049 0 15.9017C0 9.90479 6.29395 0 12.4839 0C14.3738 0 14.998 1.08052 14.998 1.8549C14.998 2.93542 14.4778 3.60174 13.5242 3.60174C12.9 3.60174 12.4839 3.16953 12.4839 2.52122C12.4839 1.87291 12.9 1.6568 12.9 1.20658C12.9 0.774374 12.6919 0.342165 12.1718 0.342165C9.65766 0.342165 7.66371 3.38564 6.60605 5.24053C5.13226 7.74375 2.41008 14.2809 2.41008 17.2163C2.41008 18.2968 2.93024 19.5034 4.3 19.5034C6.08589 19.5034 7.87177 17.8646 9.22419 16.0097L9.43226 16.2258Z" fill="#231F20"></path>
<path d="M128.792 30.8306H0.104004V33.766H128.792V30.8306Z" fill="url(#paint0_linear_2511_4768)"></path>
<defs>
<linearGradient id="paint0_linear_2511_4768" x1="0.104645" y1="32.2968" x2="128.79" y2="32.2968" gradientUnits="userSpaceOnUse">
<stop stop-color="#AFC0D2"></stop>
<stop offset="0.14" stop-color="#AFC0D2"></stop>
<stop offset="0.5" stop-color="#FFD239"></stop>
<stop offset="1" stop-color="#F2717C"></stop>
</linearGradient>
</defs>
</svg>