<svg width="230" height="40" viewBox="0 0 230 40" fill="none" xmlns="http://www.w3.org/2000/svg">
<path d="M124.571 37.0336H134.261L137.299 11.4412H147.787L148.764 3.23193H118.096L117.121 11.4412H127.61L124.571 37.0336Z" fill="#007CBF"></path>
<path d="M147.343 37.0336H175.712L176.659 29.0658H157.879L158.515 23.7063H175.297L176.175 16.3175H159.393L160.001 11.1994H178.53L179.477 3.23193H151.357L147.343 37.0336Z" fill="#007CBF"></path>
<path d="M202.373 15.352L202.361 15.4487C202.07 17.911 199.988 19.4563 196.691 19.4563H190.298L191.263 11.3445H197.606C200.852 11.3445 202.69 12.6967 202.373 15.3521L202.373 15.352ZM210.021 6.90131C207.948 4.58383 204.412 3.23193 199.068 3.23193H182.536L178.521 37.0336H188.211L189.427 26.7967H193.673L199.5 37.0336H210.687L203.746 25.2517C208.303 23.4646 211.556 20.036 212.171 14.869L212.183 14.7725C212.578 11.4411 211.838 8.83292 210.021 6.90136" fill="#007CBF"></path>
<path d="M62.9548 31.4176C63.9701 30.3101 64.8549 29.0925 65.592 27.7882C66.2921 26.5614 66.803 25.2383 67.1076 23.8628C67.4541 22.4339 67.4352 20.9425 67.0529 19.5225C66.6049 18.0584 65.5872 16.8292 64.2226 16.1039C62.5016 15.1316 60.2842 15.0088 58.2891 15.2991C55.7799 15.7082 53.3837 16.6256 51.2515 17.9935C50.5909 18.4092 49.9524 18.8581 49.3384 19.3384C49.1536 19.5078 49.0187 19.7234 48.948 19.9624C48.8437 20.5198 48.7634 21.0742 48.707 21.6256C48.707 21.6329 48.707 21.6387 48.7073 21.6496C48.7133 21.8493 48.7604 22.527 49.1126 22.1983C49.1295 22.1827 49.1477 22.1686 49.167 22.1561C50.0434 21.3163 51.004 20.5667 52.0341 19.9188C53.6914 18.8562 55.5536 18.1432 57.5035 17.8247C59.0548 17.5986 60.7776 17.6949 62.1149 18.4508C63.1756 19.0141 63.9668 19.9692 64.3155 21.1069C64.6126 22.2106 64.6273 23.3698 64.3583 24.4805C64.1219 25.5497 63.7249 26.5779 63.1802 27.5312C62.6073 28.545 61.9197 29.4914 61.1308 30.3524C60.4083 31.1453 59.6132 31.8709 58.7558 32.5198C57.9747 33.1124 57.1433 33.6374 56.2708 34.0891C55.6705 34.3985 55.0489 34.6661 54.4107 34.8899L54.4104 34.8909C54.4104 34.8909 53.7385 35.1759 54.0665 35.5252C54.4949 35.846 54.9445 36.1382 55.4123 36.3999C55.626 36.4734 55.8544 36.4959 56.0786 36.4655C56.3029 36.4351 56.5167 36.3527 56.7024 36.2251C57.8246 35.6435 58.8943 34.9682 59.8998 34.2066C61.0028 33.3716 62.0255 32.438 62.9548 31.4177" fill="#007CBF"></path>
<path d="M74.704 3.56422C70.5688 1.29304 65.5134 1.58107 60.9308 3.87159L60.9174 3.87743C60.8831 3.89469 60.8496 3.91469 60.8152 3.93209C60.3826 4.18217 60.9235 4.17619 60.9235 4.17619L60.9243 4.17686C64.7217 3.43866 68.4077 3.1117 72.5655 4.91706C77.6139 7.26319 79.7868 12.4672 80.6942 16.665H80.6945C80.6945 16.665 81.1707 17.7188 81.5048 16.7035C81.6199 11.091 79.261 6.06676 74.7036 3.56382" fill="#007CBF"></path>
<path d="M71.258 6.85642C67.5355 4.90887 61.6233 5.54352 57.1611 6.61767C56.8161 6.71646 56.4957 6.88496 56.2203 7.11248C55.7998 7.49272 55.39 7.89151 54.9909 8.30885C54.9244 8.38911 54.5181 8.89956 55.0641 8.75605C55.076 8.75313 55.0837 8.75313 55.0945 8.75021C59.9229 7.44196 65.8361 6.95681 69.2113 8.74289C74.1591 11.3607 75.5859 16.0176 75.3271 21.0195C75.0713 25.9602 72.9568 30.9534 70.0526 35.1931L70.0556 35.1935C70.0556 35.1935 69.8437 35.7023 70.2398 35.4878C71.0271 35.0212 71.7817 34.503 72.4988 33.9369C72.8532 33.5428 73.1872 33.1314 73.4996 32.7042C76.1126 28.6832 77.892 24.0203 78.0141 19.4126C78.1536 14.1703 76.394 9.54404 71.2573 6.85629" fill="#007CBF"></path>
<path d="M72.5279 22.2313C72.9018 20.2488 72.7909 18.207 72.2043 16.2754C71.5392 14.3012 70.158 12.6393 68.3262 11.6091C66.0049 10.2296 62.988 9.91931 60.2316 10.1727C57.3113 10.4805 54.4639 11.2694 51.808 12.5065C51.7929 12.5318 51.7771 12.5562 51.7618 12.5813C51.5576 12.9249 51.3633 13.2729 51.1787 13.6252C51.1625 13.6558 51.148 13.6865 51.1322 13.7172C51.0516 13.873 50.9793 14.0318 50.902 14.1887C50.8275 14.3904 50.7739 14.7138 51.338 14.457C51.3499 14.4526 51.3572 14.4512 51.3678 14.4468C53.7206 13.3041 56.251 12.5586 58.8536 12.2412C61.285 11.9822 63.959 12.2229 66.0063 13.4526C67.6239 14.3769 68.8275 15.8706 69.3755 17.634C69.8681 19.3907 69.937 21.2368 69.5766 23.0245C69.2527 24.8145 68.6757 26.5508 67.8627 28.1825C66.9638 30.0042 65.8705 31.7261 64.6015 33.319C63.4825 34.729 62.2522 36.0494 60.9222 37.268L60.9296 37.2695C60.9296 37.2695 60.9059 37.2871 60.8709 37.3148C60.771 37.4063 60.6748 37.5016 60.5736 37.5922C60.4515 37.736 60.3954 37.8798 60.6087 37.9158C61.1765 37.9609 61.7464 37.9721 62.3155 37.9492L62.323 37.9312C62.706 37.904 63.0705 37.7577 63.364 37.5132C64.7068 36.2782 65.9543 34.9461 67.0963 33.5279C68.4987 31.7883 69.7022 29.9013 70.6848 27.9011C71.5746 26.1091 72.1954 24.1991 72.528 22.2309" fill="#007CBF"></path>
<path d="M52.6504 30.2928C52.306 30.1959 51.9878 30.0245 51.719 29.7909C51.4035 29.509 51.1785 29.1421 51.0718 28.7354C50.9546 28.2024 50.9627 27.65 51.0958 27.1205C51.1865 26.755 51.3203 26.4012 51.4943 26.0664C51.6838 25.689 51.9101 25.3307 52.1702 24.9968C52.7508 24.2602 53.4574 23.6294 54.2581 23.1329C55.029 22.6378 55.8956 22.3059 56.8032 22.1579C57.5315 22.0213 58.2851 22.1235 58.9491 22.4489C59.4425 22.7116 59.8106 23.1563 59.9729 23.6859C60.1118 24.1994 60.119 24.739 59.9938 25.2559C59.8833 25.7531 59.6984 26.2313 59.4451 26.6747C59.179 27.1473 58.8589 27.5882 58.4911 27.9889C58.1548 28.3575 57.785 28.6948 57.3863 28.9968C57.0229 29.2723 56.6362 29.5166 56.2305 29.727C55.8497 29.9243 55.4503 30.0845 55.0379 30.2052C54.6478 30.3223 54.245 30.3931 53.8379 30.4159C53.4379 30.4403 53.0366 30.3987 52.6504 30.2927V30.2928ZM56.575 31.4341C57.1807 31.1207 57.7579 30.7562 58.3001 30.345C58.8955 29.8936 59.4478 29.3894 59.9499 28.8386C60.4985 28.2415 60.9759 27.5844 61.373 26.8801C61.7506 26.2181 62.0261 25.5042 62.1903 24.762C62.3772 23.9907 62.3669 23.1856 62.1602 22.4193C61.9186 21.6292 61.3695 20.9657 60.6332 20.5742C59.6421 20.0887 58.5172 19.9364 57.4301 20.1404C56.0762 20.3617 54.7833 20.8566 53.6324 21.5941C52.4382 22.3357 51.3841 23.2769 50.5173 24.3755C50.1294 24.8736 49.7915 25.4078 49.5083 25.9704C49.2863 26.4041 49.1076 26.8581 48.9748 27.3259C48.9542 27.3981 48.9326 27.4682 48.9138 27.544C48.7159 28.3342 48.7038 29.1586 48.8783 29.9541C49.038 30.561 49.3738 31.1087 49.8445 31.53C50.1621 31.8061 50.5278 32.0231 50.924 32.1703C51.0259 32.2089 51.1281 32.2465 51.2341 32.2775C51.8105 32.4355 52.4096 32.4982 53.0068 32.4629C53.6137 32.4284 54.2142 32.3225 54.7956 32.1476C55.4108 31.9671 56.0067 31.7282 56.5751 31.4341" fill="#007CBF"></path>
<path d="M55.8241 27.8069C56.0053 27.7134 56.1779 27.6045 56.34 27.4816C56.5179 27.3461 56.6829 27.195 56.833 27.0301C56.9972 26.8521 57.1401 26.6561 57.2586 26.4457C57.3716 26.2475 57.4544 26.0338 57.5043 25.8117C57.5598 25.5803 57.5562 25.3389 57.4939 25.1091C57.4582 24.9922 57.3995 24.8835 57.3211 24.789C57.2428 24.6945 57.1463 24.6161 57.0373 24.5584C56.8221 24.4472 56.5806 24.3951 56.3381 24.4076C56.2576 24.41 56.1774 24.417 56.0978 24.4285C55.6925 24.4943 55.3053 24.6422 54.9609 24.8631C54.6038 25.0856 54.2884 25.3673 54.0285 25.6958C53.9123 25.8445 53.8112 26.0042 53.7268 26.1726C53.6493 26.3224 53.5893 26.4803 53.548 26.6435C53.4898 26.8798 53.4867 27.126 53.5391 27.3636C53.5867 27.5454 53.6869 27.7095 53.8276 27.8358C53.9475 27.9404 54.0895 28.0171 54.2434 28.0603C54.4109 28.1059 54.5848 28.1245 54.7583 28.1152C54.9391 28.1048 55.118 28.0731 55.2912 28.0209C55.4756 27.967 55.6542 27.8953 55.8244 27.8068" fill="#007CBF"></path>
<path d="M29.7291 11.4416H48.009L48.984 3.23193H21.0137L17 37.034H26.6896L28.1233 24.9623H44.6555L45.5783 17.1875H29.0457L29.7291 11.4416Z" fill="#007CBF"></path>
<path d="M105.863 15.352L105.851 15.4487C105.558 17.911 103.477 19.4563 100.181 19.4563H93.7876L94.7511 11.3445H101.094C104.341 11.3445 106.177 12.6967 105.862 15.3521L105.863 15.352ZM113.508 6.90131C111.436 4.58383 107.9 3.23193 102.557 3.23193H86.0241L82.0107 37.0336H91.7005L92.9153 26.7967H97.1615L102.988 37.0336H114.176L107.234 25.2517C111.792 23.4646 115.046 20.036 115.66 14.869L115.67 14.7725C116.065 11.4411 115.327 8.83292 113.508 6.90136" fill="#007CBF"></path>
</svg>