<svg width="134" height="41" viewBox="0 0 134 41" fill="none" xmlns="http://www.w3.org/2000/svg">
<g clip-path="url(#clip0_2511_4759)">
<path d="M1.72053 23.8292L17.623 8.7978L33.5366 23.8292C36.6707 17.6374 35.5229 10.0071 30.0934 4.87842C23.2071 -1.62614 12.05 -1.62614 5.16367 4.87842C-0.265854 10.0071 -1.4136 17.6374 1.72053 23.8292Z" fill="#0058FF"></path>
<path d="M17.6232 9.02197L1.7207 24.0537C2.55944 25.7111 3.70709 27.2747 5.16384 28.6507L8.27592 31.6007L17.6232 22.7715L26.9704 31.6007L30.0825 28.6612C31.5392 27.2852 32.6869 25.732 33.5256 24.0641L17.6232 9.02197Z" fill="#08B2FA"></path>
<path d="M17.6195 22.5381L8.271 31.369L17.6195 40.2L26.968 31.369L17.6195 22.5381Z" fill="#86EAFA"></path>
<path d="M62.5614 13.2371V26.7046C62.5614 28.0389 62.3848 29.248 62.0428 30.3216C61.6896 31.3954 61.1598 32.3126 60.4314 33.0632C59.7031 33.8136 58.7872 34.3974 57.6726 34.8039C56.569 35.2105 55.2448 35.4189 53.7217 35.4189C52.265 35.4189 50.8855 35.2416 49.5834 34.8977C48.2811 34.5433 47.0672 33.9075 45.9636 32.9901L48.3142 29.9673C49.0978 30.6448 49.9144 31.166 50.7642 31.5412C51.6139 31.9061 52.5961 32.0937 53.6997 32.0937C54.6378 32.0937 55.4212 31.9686 56.0614 31.7288C56.7014 31.4787 57.209 31.1451 57.5953 30.7074C57.9705 30.28 58.2464 29.7587 58.4119 29.1542C58.5775 28.5496 58.6547 27.8721 58.6547 27.132V26.0583H58.5885C58.0256 26.7775 57.2752 27.3195 56.3372 27.674C55.3992 28.0284 54.4501 28.216 53.4679 28.216C52.2982 28.216 51.2276 28.018 50.2675 27.6115C49.3075 27.2154 48.4909 26.6734 47.8066 25.9957C47.1224 25.3182 46.5927 24.5156 46.2285 23.5879C45.8532 22.6602 45.6768 21.6803 45.6768 20.6276C45.6768 19.5435 45.8532 18.5218 46.1954 17.5734C46.5375 16.6248 47.0562 15.8117 47.7294 15.1133C48.4026 14.415 49.2192 13.8625 50.1572 13.4663C51.1063 13.0703 52.1878 12.8618 53.4017 12.8618C54.5163 12.8618 55.5426 13.0703 56.5027 13.4769C57.4629 13.8833 58.2243 14.54 58.7872 15.4469H58.8534V13.2371H62.5614ZM54.2073 16.1974C53.5121 16.1974 52.883 16.3017 52.3202 16.5206C51.7574 16.7394 51.2718 17.0314 50.8635 17.417C50.4662 17.7923 50.1462 18.2613 49.9144 18.8034C49.6827 19.3454 49.5723 19.9499 49.5723 20.6067C49.5723 21.2009 49.6827 21.7533 49.9144 22.2746C50.1462 22.7853 50.4662 23.2439 50.8745 23.6296C51.2829 24.0153 51.7795 24.328 52.3423 24.5573C52.9051 24.7867 53.5121 24.9013 54.1742 24.9013C54.8916 24.9013 55.5427 24.7867 56.1165 24.5573C56.6903 24.328 57.187 24.0256 57.5842 23.6504C57.9815 23.2752 58.3016 22.8166 58.5113 22.2746C58.732 21.7429 58.8423 21.1696 58.8423 20.5442C58.8423 19.2515 58.434 18.1988 57.6064 17.4066C56.7787 16.5934 55.6419 16.1974 54.2073 16.1974Z" fill="#082344"></path>
<path d="M65.5298 20.6286C65.5298 19.4609 65.7504 18.3976 66.2029 17.4385C66.6444 16.4794 67.2514 15.6661 68.0127 14.9885C68.7742 14.3109 69.6792 13.7896 70.7165 13.4144C71.7649 13.0495 72.8685 12.8618 74.0382 12.8618C75.208 12.8618 76.3226 13.0495 77.371 13.4144C78.4194 13.7792 79.3133 14.3109 80.0747 14.9885C80.8362 15.6661 81.4432 16.4794 81.8844 17.4385C82.3262 18.3976 82.5582 19.4609 82.5582 20.6286C82.5582 21.7962 82.3368 22.8596 81.8844 23.8187C81.4432 24.7778 80.8362 25.5911 80.0747 26.2686C79.3133 26.9463 78.4084 27.4675 77.371 27.8429C76.3226 28.2077 75.219 28.3953 74.0382 28.3953C72.8685 28.3953 71.7539 28.2077 70.7165 27.8429C69.6681 27.478 68.7742 26.9463 68.0127 26.2686C67.2514 25.5911 66.6444 24.7778 66.2029 23.8187C65.7504 22.8699 65.5298 21.8066 65.5298 20.6286ZM69.4474 20.6286C69.4474 21.2021 69.5467 21.7545 69.7564 22.2967C69.9661 22.8283 70.264 23.3079 70.6723 23.7144C71.0696 24.121 71.5553 24.4546 72.1291 24.7048C72.7029 24.9551 73.3319 25.0697 74.0493 25.0697C74.7666 25.0697 75.4066 24.9446 75.9694 24.7048C76.5323 24.4546 77.0179 24.1315 77.4263 23.7144C77.8234 23.3079 78.1325 22.8283 78.3421 22.2967C78.5518 21.7649 78.6512 21.2124 78.6512 20.6286C78.6512 20.0552 78.5518 19.5026 78.3421 18.9605C78.1325 18.4289 77.8346 17.9494 77.4263 17.5428C77.0289 17.1362 76.5433 16.8025 75.9694 16.5523C75.4066 16.3022 74.7666 16.1874 74.0493 16.1874C73.3319 16.1874 72.6919 16.3125 72.1291 16.5523C71.5662 16.8025 71.0807 17.1257 70.6723 17.5428C70.2751 17.9494 69.9661 18.4289 69.7564 18.9605C69.5467 19.5026 69.4474 20.0552 69.4474 20.6286Z" fill="#082344"></path>
<path d="M93.8801 17.3345C93.1181 16.3233 92.0916 15.8229 90.8121 15.8229C90.2936 15.8229 89.7741 15.948 89.2776 16.1877C88.7811 16.438 88.5271 16.8341 88.5271 17.3867C88.5271 17.8349 88.737 18.1686 89.1453 18.3769C89.5536 18.5855 90.0837 18.7524 90.7124 18.8982C91.3411 19.0441 92.0255 19.1901 92.7539 19.3466C93.4823 19.5029 94.1667 19.7323 94.7954 20.0555C95.4251 20.3787 95.9436 20.806 96.3625 21.3689C96.7708 21.9215 96.9807 22.6825 96.9807 23.6521C96.9807 24.5381 96.7823 25.2783 96.374 25.883C95.9762 26.4876 95.4471 26.9776 94.8069 27.3425C94.1667 27.7073 93.4382 27.9784 92.6331 28.1453C91.8271 28.3119 91.021 28.3954 90.2159 28.3954C89.0016 28.3954 87.8763 28.2286 86.8614 27.9054C85.8349 27.5718 84.9301 26.9776 84.124 26.1227L86.7281 23.8084C87.2256 24.3401 87.7661 24.7779 88.3402 25.1219C88.9134 25.4556 89.6198 25.6328 90.4479 25.6328C90.7344 25.6328 91.021 25.6015 91.3306 25.5389C91.6392 25.4765 91.9153 25.3722 92.1798 25.2262C92.4453 25.0802 92.6552 24.903 92.82 24.6841C92.9858 24.4652 93.0635 24.2149 93.0635 23.9335C93.0635 23.4227 92.8536 23.037 92.4453 22.7972C92.037 22.547 91.507 22.3489 90.8782 22.1926C90.2485 22.0361 89.5651 21.8902 88.8367 21.7652C88.1083 21.6295 87.424 21.4211 86.7943 21.1188C86.1655 20.8164 85.647 20.4098 85.2272 19.8678C84.8189 19.3361 84.61 18.5959 84.61 17.6473C84.61 16.8237 84.7863 16.1148 85.1505 15.5101C85.5147 14.9054 85.9777 14.4051 86.5738 14.0193C87.1585 13.6337 87.8323 13.3417 88.5933 13.1541C89.3552 12.9665 90.1277 12.8726 90.9108 12.8726C91.9593 12.8726 92.9858 13.0394 94.0123 13.3834C95.0388 13.717 95.8554 14.3008 96.4957 15.1243L93.8801 17.3345Z" fill="#082344"></path>
<path d="M98.8354 8.36664C98.8354 7.77249 99.0674 7.25138 99.5418 6.81356C100.006 6.37584 100.601 6.14648 101.318 6.14648C102.036 6.14648 102.642 6.35495 103.128 6.78232C103.614 7.19924 103.868 7.7308 103.868 8.36664C103.868 9.00247 103.625 9.53412 103.128 9.95095C102.642 10.368 102.036 10.5868 101.318 10.5868C100.601 10.5868 100.006 10.368 99.5418 9.91971C99.0674 9.48189 98.8354 8.96078 98.8354 8.36664ZM99.3866 13.3906H103.305V28.1811H99.3866V13.3906Z" fill="#082344"></path>
<path d="M105.291 16.573V13.4354H108.525V9.15137H112.442V13.4354H116.745V16.573H112.442V23.046C112.442 23.786 112.586 24.3698 112.884 24.7972C113.182 25.2245 113.756 25.4434 114.627 25.4434C114.98 25.4434 115.356 25.412 115.764 25.3391C116.172 25.2663 116.504 25.1515 116.745 24.9847V28.1014C116.337 28.289 115.83 28.4141 115.234 28.487C114.639 28.56 114.109 28.5913 113.656 28.5913C112.608 28.5913 111.759 28.487 111.096 28.2682C110.434 28.0493 109.915 27.7261 109.528 27.2779C109.154 26.8401 108.889 26.2877 108.745 25.631C108.601 24.9743 108.535 24.2134 108.535 23.3482V16.573H105.291Z" fill="#082344"></path>
<path d="M122.253 21.9213C122.386 23.0265 122.838 23.8917 123.622 24.5068C124.406 25.1219 125.355 25.4346 126.458 25.4346C127.441 25.4346 128.256 25.2469 128.918 24.8612C129.581 24.4859 130.166 24.0064 130.663 23.433L133.465 25.4346C132.55 26.498 131.534 27.259 130.397 27.7178C129.273 28.1661 128.081 28.3953 126.844 28.3953C125.675 28.3953 124.56 28.2077 123.512 27.8429C122.462 27.4675 121.569 26.9463 120.808 26.2686C120.046 25.5911 119.439 24.7778 118.998 23.8187C118.557 22.8596 118.325 21.7962 118.325 20.6286C118.325 19.4609 118.546 18.3976 118.998 17.4385C119.439 16.4794 120.046 15.6661 120.808 14.9885C121.569 14.3109 122.475 13.7896 123.512 13.4144C124.56 13.0495 125.664 12.8618 126.844 12.8618C127.926 12.8618 128.93 13.039 129.824 13.4039C130.729 13.7583 131.501 14.2797 132.142 14.9573C132.781 15.635 133.278 16.4689 133.643 17.4698C134.007 18.4706 134.183 19.6069 134.183 20.9101V21.9318H122.253V21.9213ZM130.277 19.1483C130.255 18.064 129.89 17.1987 129.194 16.5731C128.5 15.9476 127.528 15.635 126.292 15.635C125.122 15.635 124.185 15.9581 123.5 16.594C122.817 17.2299 122.396 18.0849 122.242 19.1483H130.277Z" fill="#082344"></path>
</g>
<defs>
<clipPath id="clip0_2511_4759">
<rect width="134" height="40.2" fill="white"></rect>
</clipPath>
</defs>
</svg>