<svg width="169" height="40" viewBox="0 0 169 40" fill="none" xmlns="http://www.w3.org/2000/svg">
<g clip-path="url(#clip0_2204_3162)">
<path d="M44.6943 30.0638V0.0429688H49.7688V11.8785C51.3665 9.69052 53.7626 8.59625 56.9576 8.5957C59.6827 8.5957 61.7891 9.33722 63.277 10.8203C64.7649 12.3033 65.5089 14.3694 65.5089 17.0187V30.0638H60.4346V17.6669C60.4346 14.2404 58.7745 12.527 55.4542 12.5267C53.7934 12.5267 52.4309 12.9875 51.3663 13.909C50.3018 14.8306 49.7692 16.1264 49.7688 17.7964V30.0641L44.6943 30.0638Z" fill="#323232"></path>
<path d="M89.4864 27.4726C87.2312 29.5459 84.3964 30.5826 80.9821 30.5826C77.5678 30.5826 74.725 29.5459 72.454 27.4726C70.1826 25.3994 69.0469 22.7645 69.0469 19.5677C69.0469 16.371 70.1823 13.7433 72.4533 11.6846C74.7243 9.62623 77.5669 8.59677 80.9814 8.59619C84.3959 8.59563 87.2306 9.6251 89.4857 11.6846C91.7412 13.7439 92.8689 16.3716 92.8689 19.5677C92.8688 22.7638 91.7412 25.3989 89.4864 27.4726ZM76.166 24.8381C77.3715 26.1341 78.9769 26.7819 80.9821 26.7818C82.9874 26.7818 84.5928 26.1338 85.7981 24.8381C87.0034 23.5422 87.6065 21.7856 87.607 19.5682C87.607 17.3801 86.9963 15.638 85.7746 14.3418C84.5531 13.0456 82.9557 12.3976 80.9821 12.3978C78.9772 12.3978 77.3718 13.0385 76.166 14.32C74.9603 15.6015 74.3572 17.3509 74.3571 19.5682C74.3571 21.7859 74.9601 23.5425 76.166 24.8381Z" fill="#323232"></path>
<path d="M104.615 30.5826C99.9469 30.5826 97.6133 28.2789 97.6135 23.6713V13.0445H94.0898V9.11335H97.7547L98.9293 2.93652H102.735V9.11335H111.803V13.0445H102.735V23.541C102.735 25.4705 103.503 26.4352 105.037 26.4352C106.478 26.4352 107.778 25.2257 108.937 22.8066L112.884 24.6643C110.941 28.6102 108.185 30.5829 104.615 30.5826Z" fill="#323232"></path>
<path d="M114.515 39.6533C112.26 39.6533 110.396 39.0774 108.924 37.9254L110.804 34.254C111.712 35.2325 112.699 35.7219 113.764 35.7219C115.173 35.7219 115.878 34.8868 115.878 33.2167V9.11425H120.952V33.3036C120.952 35.55 120.349 37.1696 119.143 38.1626C117.937 39.1558 116.395 39.6527 114.515 39.6533ZM118.415 5.57197C117.581 5.598 116.77 5.31835 116.16 4.79452C115.866 4.54035 115.635 4.23179 115.481 3.88926C115.327 3.54675 115.254 3.17807 115.267 2.80768C115.256 2.43424 115.33 2.06274 115.483 1.71689C115.637 1.37105 115.867 1.05845 116.16 0.799066C116.773 0.28497 117.573 0 118.403 0C119.233 0 120.034 0.28497 120.647 0.799066C120.946 1.05521 121.182 1.36671 121.34 1.71296C121.498 2.05922 121.574 2.43234 121.563 2.80768C121.571 3.17623 121.493 3.54201 121.335 3.88081C121.177 4.21961 120.942 4.52369 120.647 4.77293C120.351 5.03463 120.001 5.23993 119.618 5.37709C119.235 5.51424 118.826 5.58052 118.416 5.57216L118.415 5.57197Z" fill="#323232"></path>
<path d="M133.554 30.5826C130.953 30.5826 128.847 29.985 127.234 28.7898C125.622 27.5947 124.815 25.9894 124.814 23.9737C124.814 22.1311 125.653 20.5688 127.329 19.287C129.005 18.0051 131.111 17.3644 133.648 17.3647C136.248 17.3647 138.441 18.1279 140.226 19.6542V17.1056C140.226 15.6087 139.811 14.4496 138.981 13.6284C138.151 12.8072 136.969 12.3967 135.434 12.3968C132.333 12.3968 130.406 13.851 129.654 16.7595L125.003 15.8523C125.629 13.6063 126.866 11.8354 128.715 10.5395C130.564 9.24365 132.866 8.5957 135.622 8.5957C138.629 8.5957 141.002 9.32282 142.74 10.7771C144.478 12.2313 145.348 14.355 145.348 17.1482V30.0638H140.414V27.4292C138.753 29.5317 136.466 30.5829 133.554 30.5826ZM134.493 27.1269C136.749 27.1269 138.659 26.0902 140.226 24.0169V23.3689C138.66 21.641 136.749 20.7772 134.493 20.7773C133.178 20.7773 132.113 21.0726 131.298 21.6629C130.913 21.9239 130.601 22.266 130.388 22.6605C130.176 23.0549 130.069 23.4904 130.077 23.9304C130.064 24.3752 130.166 24.8164 130.375 25.2181C130.583 25.6198 130.891 25.9706 131.275 26.2418C132.074 26.8323 133.147 27.1272 134.493 27.1269Z" fill="#323232"></path>
<path d="M150.286 30.0638V9.11396H155.22V12.7414C156.472 10.0925 158.634 8.76792 161.704 8.76758C163.52 8.76758 165.023 9.31474 166.214 10.4091C167.405 11.5034 168 12.972 168 14.8148C167.987 15.9178 167.781 17.0117 167.389 18.0542L162.737 17.6225C162.833 17.05 162.896 16.4733 162.925 15.8948C162.925 13.7352 161.954 12.6554 160.012 12.6554C158.697 12.6554 157.592 13.2961 156.7 14.5776C155.807 15.8591 155.36 17.5509 155.36 19.6532V30.0633L150.286 30.0638Z" fill="#323232"></path>
<path d="M13.0053 12.319C16.786 10.3877 21.9658 7.74268 21.9658 0.0424805H15.6951C15.6951 4.35057 13.4137 5.51575 9.96041 7.27954C6.17974 9.21071 1 11.8557 1 19.556H7.27117C7.27117 15.2478 9.55205 14.0829 13.0053 12.319Z" fill="#FF3C00"></path>
<path d="M23.857 10.5503C23.857 14.8584 21.5757 16.0234 18.1224 17.7872C14.3417 19.7186 9.16211 22.3636 9.16211 30.0638H15.4332C15.4332 25.7557 17.7146 24.5906 21.168 22.8267C24.9486 20.8955 30.1281 18.2504 30.1281 10.5503H23.857Z" fill="#FF3C00"></path>
</g>
<defs>
<clipPath id="clip0_2204_3162">
<rect width="169" height="40" fill="white"></rect>
</clipPath>
</defs>
</svg>