<svg width="123" height="31" viewBox="0 0 123 31" fill="none" xmlns="http://www.w3.org/2000/svg">
<path d="M41.6592 19.2183H45.5661V0H41.6592V19.2183Z" fill="#004C45"></path>
<path d="M57.1623 3.14001H54.5041V16.0789H57.1623C62.4145 16.0789 64.2734 13.4523 64.2734 9.60841C64.2734 5.76665 62.4145 3.14001 57.1623 3.14001ZM57.3545 19.2191H50.5962V0.000854492H57.3545C65.0422 0.000854492 68.2759 4.32468 68.2759 9.60841C68.2759 14.8932 65.0422 19.2191 57.3545 19.2191Z" fill="#004C45"></path>
<path d="M72.375 19.2189V0.000610352H84.8991V3.04419H76.2829V7.55916H83.2975V10.6027H76.2829V16.1763H84.8991V19.2189H72.375Z" fill="#004C45"></path>
<path d="M97.1334 4.77288L94.282 11.7559H99.9522L97.1334 4.77288ZM102.962 19.2189L101.009 14.4781H93.2244L91.272 19.2189H87.4922L95.6599 0.000610352H98.7024L106.87 19.2189H102.962Z" fill="#004C45"></path>
<path d="M110.073 19.2189V0.000610352H113.982V16.1763H122.598V19.2189H110.073Z" fill="#004C45"></path>
<path d="M44.0653 28.8214V27.0128C44.0653 26.2609 43.7533 25.9941 43.2293 25.9941C42.6874 25.9941 42.1276 26.5171 42.1276 27.0675V28.8214H41.6592V23.3129H42.1276V26.2609C42.3471 25.8733 42.8344 25.5698 43.3574 25.5698C44.1566 25.5698 44.5326 26.0855 44.5326 26.9582V28.8214H44.0653Z" fill="#004C45"></path>
<path d="M47.4048 25.9656C46.7075 25.9656 46.174 26.4886 46.174 27.2511C46.174 28.0041 46.7075 28.5461 47.4048 28.5461C48.1117 28.5461 48.6357 28.0041 48.6357 27.2511C48.6357 26.4886 48.1117 25.9656 47.4048 25.9656ZM47.4048 28.9493C46.4229 28.9493 45.7056 28.1785 45.7056 27.2511C45.7056 26.3237 46.4229 25.5613 47.4048 25.5613C48.3963 25.5613 49.1031 26.3237 49.1031 27.2511C49.1031 28.1785 48.3963 28.9493 47.4048 28.9493Z" fill="#004C45"></path>
<path d="M54.7654 28.8215V26.9846C54.7654 26.2316 54.4892 25.9942 54.0029 25.9942C53.4788 25.9942 52.9926 26.5173 52.9926 27.0676V28.8215H52.5242V26.9846C52.5242 26.2316 52.2585 25.9942 51.7617 25.9942C51.2471 25.9942 50.7524 26.5173 50.7524 27.0676V28.8215H50.283V25.6907H50.6968L50.7241 26.2684C50.9268 25.8829 51.3489 25.5699 51.872 25.5699C52.4874 25.5699 52.772 25.8829 52.9191 26.3051C53.1669 25.8735 53.5902 25.5699 54.1132 25.5699C54.884 25.5699 55.2327 26.0573 55.2327 26.9395V28.8215H54.7654Z" fill="#004C45"></path>
<path d="M57.9562 25.9477C57.4972 25.9477 57.0656 26.2134 56.9458 26.7837H58.81C58.8562 26.3058 58.5159 25.9477 57.9562 25.9477ZM59.2322 27.1229H56.9185C56.8629 27.7751 57.1664 28.5376 58.204 28.5376C58.5811 28.5376 58.9476 28.3717 59.2227 28.1511V28.5376C58.9665 28.776 58.5443 28.9325 58.0118 28.9325C57.0929 28.9325 56.4407 28.1984 56.4407 27.2248C56.4407 26.205 57.1758 25.5707 57.9467 25.5707C58.7092 25.5707 59.269 26.0853 59.269 26.7932C59.269 26.894 59.2511 27.0137 59.2322 27.1229Z" fill="#004C45"></path>
<path d="M61.4067 28.9415C60.8469 28.9415 60.4058 28.6936 60.2871 28.6191L60.3785 28.2347C60.6169 28.3723 60.9939 28.5466 61.4256 28.5466C61.8478 28.5466 62.1408 28.3817 62.1408 27.9868C62.1408 27.6928 61.9034 27.5552 61.3415 27.4082C60.6999 27.2422 60.3963 26.8841 60.3963 26.4797C60.3963 25.9851 60.7545 25.5713 61.498 25.5713C61.9297 25.5713 62.3162 25.7645 62.4254 25.8181L62.334 26.1962C62.104 26.067 61.7826 25.9567 61.498 25.9567C61.0307 25.9567 60.8374 26.15 60.8374 26.4335C60.8374 26.7286 61.0664 26.8652 61.5169 26.986C62.2153 27.1508 62.5913 27.4901 62.5913 27.9217C62.5913 28.5561 62.1135 28.9415 61.4067 28.9415Z" fill="#004C45"></path>
<path d="M65.8103 29.7037H66.1401V22.5222H65.8103V29.7037Z" fill="#004C45"></path>
<path d="M71.9769 28.8215V27.013C71.9769 26.261 71.665 25.9942 71.1409 25.9942C70.599 25.9942 70.0392 26.5173 70.0392 27.0676V28.8215H69.5708V25.6907H69.9835L70.0108 26.2778C70.2314 25.8829 70.746 25.5699 71.269 25.5699C72.0683 25.5699 72.4442 26.0856 72.4442 26.9584V28.8215H71.9769Z" fill="#004C45"></path>
<path d="M75.1693 25.9477C74.7103 25.9477 74.2787 26.2134 74.159 26.7837H76.0231C76.0694 26.3058 75.7291 25.9477 75.1693 25.9477ZM76.4453 27.1229H74.1317C74.076 27.7751 74.3795 28.5376 75.4172 28.5376C75.7942 28.5376 76.1607 28.3717 76.4359 28.1511V28.5376C76.1796 28.776 75.7574 28.9325 75.225 28.9325C74.306 28.9325 73.6538 28.1984 73.6538 27.2248C73.6538 26.205 74.3879 25.5707 75.1598 25.5707C75.9223 25.5707 76.4821 26.0853 76.4821 26.7932C76.4821 26.894 76.4642 27.0137 76.4453 27.1229Z" fill="#004C45"></path>
<path d="M77.7373 28.8218H78.2057V25.691H77.7373V28.8218ZM77.7373 24.625H78.2057V24.0663H77.7373V24.625Z" fill="#004C45"></path>
<path d="M81.0696 25.9662C80.4353 25.9662 79.8944 26.4346 79.8944 27.2517C79.8944 28.0687 80.4353 28.5466 81.0696 28.5466C81.6851 28.5466 82.2449 28.0782 82.2449 27.2517C82.2449 26.4167 81.6851 25.9662 81.0696 25.9662ZM80.9961 30.6492C80.5372 30.6492 80.0131 30.4664 79.7106 30.2637V29.8415C80.1244 30.0989 80.5193 30.2459 81.0423 30.2459C81.6116 30.2459 82.2176 29.9245 82.2176 28.8869V28.3166C81.9697 28.7398 81.4372 28.9415 80.9877 28.9415C80.0971 28.9415 79.426 28.2158 79.426 27.2517C79.426 26.2781 80.0971 25.5713 80.9877 25.5713C81.4456 25.5713 82.0064 25.7729 82.2543 26.2602L82.2827 25.691H82.686V28.8501C82.686 30.3373 81.7491 30.6492 80.9961 30.6492Z" fill="#004C45"></path>
<path d="M86.493 28.8214V27.0128C86.493 26.2609 86.1811 25.9941 85.657 25.9941C85.1151 25.9941 84.5553 26.5171 84.5553 27.0675V28.8214H84.0869V23.3129H84.5553V26.2609C84.7748 25.8733 85.2621 25.5698 85.7851 25.5698C86.5844 25.5698 86.9604 26.0855 86.9604 26.9582V28.8214H86.493Z" fill="#004C45"></path>
<path d="M88.7936 27.2514C88.7936 28.078 89.3534 28.5464 89.9688 28.5464C90.5937 28.5464 91.1441 28.0685 91.1441 27.2514C91.1441 26.4354 90.5937 25.966 89.9688 25.966C89.3534 25.966 88.7936 26.4165 88.7936 27.2514ZM90.0508 28.9413C89.5929 28.9413 89.032 28.7302 88.7842 28.2523L88.7663 28.8216H88.3525V23.312H88.8209V26.196C89.0688 25.7727 89.6013 25.5711 90.0508 25.5711C90.9424 25.5711 91.6125 26.2779 91.6125 27.2514C91.6125 28.225 90.9424 28.9413 90.0508 28.9413Z" fill="#004C45"></path>
<path d="M94.3096 25.9656C93.6123 25.9656 93.0788 26.4886 93.0788 27.2511C93.0788 28.0041 93.6123 28.5461 94.3096 28.5461C95.0164 28.5461 95.5405 28.0041 95.5405 27.2511C95.5405 26.4886 95.0164 25.9656 94.3096 25.9656ZM94.3096 28.9493C93.3277 28.9493 92.6104 28.1785 92.6104 27.2511C92.6104 26.3237 93.3277 25.5613 94.3096 25.5613C95.3011 25.5613 96.0079 26.3237 96.0079 27.2511C96.0079 28.1785 95.3011 28.9493 94.3096 28.9493Z" fill="#004C45"></path>
<path d="M97.6583 26.958V28.8211H97.1899V25.6914H97.6027L97.631 26.2606C97.86 25.9025 98.3557 25.5717 98.8525 25.5717V26.0863C98.2738 25.9938 97.6583 26.4076 97.6583 26.958Z" fill="#004C45"></path>
<path d="M102.312 28.8214V27.0128C102.312 26.2609 102 25.9941 101.476 25.9941C100.934 25.9941 100.375 26.5171 100.375 27.0675V28.8214H99.9062V23.3129H100.375V26.2609C100.594 25.8733 101.081 25.5698 101.604 25.5698C102.404 25.5698 102.78 26.0855 102.78 26.9582V28.8214H102.312Z" fill="#004C45"></path>
<path d="M105.651 25.9656C104.954 25.9656 104.42 26.4886 104.42 27.2511C104.42 28.0041 104.954 28.5461 105.651 28.5461C106.358 28.5461 106.882 28.0041 106.882 27.2511C106.882 26.4886 106.358 25.9656 105.651 25.9656ZM105.651 28.9493C104.669 28.9493 103.952 28.1785 103.952 27.2511C103.952 26.3237 104.669 25.5613 105.651 25.5613C106.642 25.5613 107.349 26.3237 107.349 27.2511C107.349 28.1785 106.642 28.9493 105.651 28.9493Z" fill="#004C45"></path>
<path d="M110.01 25.9656C109.313 25.9656 108.779 26.4886 108.779 27.2511C108.779 28.0041 109.313 28.5461 110.01 28.5461C110.717 28.5461 111.241 28.0041 111.241 27.2511C111.241 26.4886 110.717 25.9656 110.01 25.9656ZM110.01 28.9493C109.028 28.9493 108.311 28.1785 108.311 27.2511C108.311 26.3237 109.028 25.5613 110.01 25.5613C111.001 25.5613 111.708 26.3237 111.708 27.2511C111.708 28.1785 111.001 28.9493 110.01 28.9493Z" fill="#004C45"></path>
<path d="M113.174 27.2514C113.174 28.0685 113.715 28.5464 114.349 28.5464C114.965 28.5464 115.524 28.078 115.524 27.2514C115.524 26.4165 114.965 25.966 114.349 25.966C113.715 25.966 113.174 26.4354 113.174 27.2514ZM115.562 28.8216L115.534 28.2523C115.286 28.7302 114.725 28.9413 114.267 28.9413C113.377 28.9413 112.706 28.225 112.706 27.2514C112.706 26.2779 113.377 25.5711 114.267 25.5711C114.717 25.5711 115.249 25.7727 115.497 26.196V23.312H115.966V28.8216H115.562Z" fill="#004C45"></path>
<path d="M118.249 28.9415C117.689 28.9415 117.248 28.6936 117.13 28.6191L117.221 28.2347C117.459 28.3723 117.836 28.5466 118.268 28.5466C118.69 28.5466 118.983 28.3817 118.983 27.9868C118.983 27.6928 118.746 27.5552 118.184 27.4082C117.542 27.2422 117.239 26.8841 117.239 26.4797C117.239 25.9851 117.597 25.5713 118.341 25.5713C118.772 25.5713 119.159 25.7645 119.268 25.8181L119.177 26.1962C118.947 26.067 118.625 25.9567 118.341 25.9567C117.873 25.9567 117.68 26.15 117.68 26.4335C117.68 26.7286 117.909 26.8652 118.359 26.986C119.058 27.1508 119.434 27.4901 119.434 27.9217C119.434 28.5561 118.956 28.9415 118.249 28.9415Z" fill="#004C45"></path>
<path d="M121.1 23.1302V23.6595H121.389C121.588 23.6595 121.678 23.5577 121.678 23.397C121.678 23.2384 121.588 23.1302 121.389 23.1302H121.1ZM121.758 24.4451L121.342 23.8423H121.1V24.4451H120.886V22.9485H121.416C121.743 22.9485 121.891 23.1617 121.891 23.397C121.891 23.5955 121.79 23.7719 121.56 23.8255L121.999 24.4451H121.758ZM121.362 22.6009C120.749 22.6009 120.251 23.0987 120.251 23.7142C120.251 24.3285 120.749 24.8253 121.362 24.8253C121.973 24.8253 122.475 24.3285 122.475 23.7142C122.475 23.0987 121.973 22.6009 121.362 22.6009ZM121.362 24.9482C120.685 24.9482 120.128 24.3968 120.128 23.7142C120.128 23.0284 120.685 22.478 121.362 22.478C122.041 22.478 122.597 23.0284 122.597 23.7142C122.597 24.3968 122.041 24.9482 121.362 24.9482Z" fill="#004C45"></path>
<path d="M28.7303 30.649H1.91983C0.860143 30.649 0 29.791 0 28.7292V1.91983C0 0.860143 0.860143 0 1.91983 0H28.7303C29.7899 0 30.6501 0.860143 30.6501 1.91983V28.7292C30.6501 29.791 29.7899 30.649 28.7303 30.649Z" fill="#004C45"></path>
<path d="M17.127 5.33952C16.835 5.37313 16.6229 5.6672 16.6533 5.99697C16.668 6.15766 16.7394 6.30574 16.8529 6.40761L24.9796 13.8275H23.8264C23.5324 13.8275 23.295 14.0953 23.295 14.4262V25.8055H8.9509C8.65683 25.8013 8.41633 26.0659 8.41202 26.3978C8.40793 26.7276 8.64213 26.9996 8.93514 27.0038H8.9509H23.8264C24.1195 27.0038 24.3568 26.736 24.3579 26.4062V15.0259H26.4825C26.7755 15.0269 27.0139 14.758 27.0139 14.4262C27.0139 14.2445 26.9404 14.0722 26.8144 13.9588L17.525 5.48131C17.4147 5.37418 17.2709 5.32272 17.127 5.33952ZM15.3174 3.63604C15.1988 3.64234 15.0843 3.6917 14.994 3.77782L3.8373 13.9588C3.6073 14.1647 3.57054 14.5427 3.75328 14.8011C3.85515 14.9439 4.00744 15.0269 4.16917 15.0259H6.2938V26.4062C6.2896 26.736 6.52485 27.008 6.81787 27.0134C7.11088 27.0185 7.35244 26.7538 7.35664 26.422V26.4062V14.4262C7.35664 14.0953 7.11929 13.8275 6.82522 13.8275H5.67206L15.6577 4.71253C15.8919 4.51299 15.9381 4.137 15.7606 3.87339C15.6567 3.71796 15.4907 3.62869 15.3174 3.63604Z" fill="#FEFEFE"></path>
</svg>