<svg width="81" height="35" viewBox="0 0 81 35" fill="none" xmlns="http://www.w3.org/2000/svg">
<g clip-path="url(#clip0_2511_4739)">
<path d="M56.4488 30.8138H51.5506L58.2183 15.5148H63.1597C59.5561 23.7145 57.5493 28.2676 56.4488 30.8138ZM40.373 29.5407L36.1221 15.4932H46.5444C43.4587 22.5062 41.5382 26.8434 40.373 29.5407ZM25.5055 25.0524L26.6276 22.463L27.4044 25.0524H25.5055ZM68.209 30.8138L76.5814 11.6091H37.6973L36.0789 15.3206L34.9568 11.6091H27.1671C27.1671 11.6091 22.0314 23.3261 20.5641 26.6924C20.6936 26.0234 20.7799 25.3113 20.7799 24.5993C20.7799 24.5129 20.7799 24.4051 20.7799 24.3187C21.3625 23.0025 25.894 12.6017 26.8218 10.4871H48.1843L52.7589 0H27.426L19.1184 19.0321C17.2842 16.1406 14.0475 14.2417 10.3792 14.2417C4.63933 14.2417 0 18.881 0 24.6208C0 30.3607 4.63933 35 10.3792 35C13.8748 35 16.939 33.2737 18.8379 30.6412L17.0684 34.7195H21.3194L23.8224 28.9797H28.6128L30.3391 34.7195H75.0925L76.7972 30.8138H68.209Z" fill="white"></path>
<path d="M0.625977 25.0742C0.755446 27.642 1.85594 29.9293 3.5822 31.6124C5.41636 29.9941 6.62474 27.6636 6.75421 25.0742H0.625977Z" fill="#0D2240"></path>
<path d="M7.59571 25.0742C7.46624 27.901 6.19312 30.4256 4.22949 32.1951C5.80471 33.4682 7.76833 34.2666 9.94774 34.3745V25.0958H7.59571V25.0742Z" fill="#FFA400"></path>
<path d="M0.625977 24.2109H6.75421C6.64632 21.5783 5.43794 19.2263 3.5822 17.6079C1.83436 19.291 0.733868 21.6215 0.625977 24.2109Z" fill="#0D2240"></path>
<path d="M4.22949 17.0256C6.2147 18.8166 7.48781 21.3628 7.59571 24.2112H9.92616V14.8462C7.76833 14.9541 5.80471 15.7525 4.22949 17.0256Z" fill="#FFA400"></path>
<path d="M20.0901 25.0742H13.9834C14.1129 27.6852 15.3213 29.9941 17.1554 31.6124C18.8601 29.9293 19.9822 27.642 20.0901 25.0742Z" fill="#0D2240"></path>
<path d="M13.12 25.0742H10.7896V34.3529C12.9474 34.2666 14.9326 33.4682 16.5078 32.1735C14.5226 30.4041 13.2495 27.8794 13.12 25.0742Z" fill="#2B5134"></path>
<path d="M16.5078 17.0256C14.9326 15.7525 12.969 14.9541 10.7896 14.8462V24.2112H13.12C13.2279 21.3628 14.5226 18.8166 16.5078 17.0256Z" fill="#2B5134"></path>
<path d="M27.8147 0.604492L19.1618 20.4349C18.6655 19.3776 17.975 18.4066 17.1334 17.6082C15.2777 19.2481 14.0693 21.5786 13.9614 24.2111H20.0897L26.3474 9.86158H44.6458L48.6809 0.604492H27.8147Z" fill="#0D2240"></path>
<path d="M47.7316 9.86158L51.7668 0.604492H50.0405L46.0054 9.86158H47.7316Z" fill="#2B5134"></path>
<path d="M24.5561 25.6786C25.2682 24.0387 26.0234 22.334 26.7355 20.694L28.246 25.6786H24.5561ZM30.7706 34.0942H38.0425L31.4827 12.2354H27.5555L17.9531 34.0942H20.8662C20.8662 34.0942 21.9451 31.6342 23.3909 28.3543H29.0444L30.7706 34.0942Z" fill="#0D2240"></path>
<path d="M38.7116 31.8932L39.7257 29.5843L34.4606 12.2354H32.7344L38.7116 31.8932Z" fill="#2B5134"></path>
<path d="M64.1525 31.4185L72.5681 12.2354H60.3332L59.168 14.8895H64.1094C61.5631 20.7156 55.6938 34.0726 55.6938 34.0726H74.6827L75.848 31.4185H64.1525Z" fill="#0D2240"></path>
<path d="M51.1413 30.1885L58.9742 12.2354H57.248L49.415 30.1885H51.1413Z" fill="#2B5134"></path>
<path d="M67.7995 30.1885L75.6324 12.2354H73.9062L66.0732 30.1885H67.7995Z" fill="#2B5134"></path>
<path d="M55.9314 12.2354H38.0861L36.9209 14.8895H47.4727C44.9264 20.7156 39.0572 34.0726 39.0572 34.0726H54.4425L55.6077 31.4185H47.5374L55.9314 12.2354Z" fill="#0D2240"></path>
<path d="M55.0251 8.43741H52.7594L56.2119 0.604492H54.5288L50.9468 8.69636C50.6663 9.32213 50.9468 9.84 51.5942 9.84H54.8957C55.5214 9.84 56.2767 9.32213 56.5572 8.69636L60.1392 0.604492H58.4992L55.0251 8.43741Z" fill="#0D2240"></path>
<path d="M67.4761 0.604492H61.65L61.0242 2.02866H63.2899L59.8374 9.86158H61.4989L64.9515 2.02866H66.8503L67.4761 0.604492Z" fill="#0D2240"></path>
<path d="M71.6834 0.604492H70.0434L63.7642 9.86158H65.3394L66.2672 8.45899H68.4898L68.1661 9.86158H69.8277L71.6834 0.604492ZM69.8061 2.91337L68.8351 6.97009H67.2167L69.8061 2.91337Z" fill="#0D2240"></path>
<path d="M79.1496 0.604492L77.4233 4.51016H75.1792L76.9055 0.604492H75.2223L71.144 9.86158H72.8056L74.5318 5.93433H76.7976L75.0713 9.86158H76.7328L80.8111 0.604492H79.1496Z" fill="#0D2240"></path>
</g>
<defs>
<clipPath id="clip0_2511_4739">
<rect width="81" height="35" fill="white"></rect>
</clipPath>
</defs>
</svg>