<svg width="230" height="40" viewBox="0 0 230 40" fill="none" xmlns="http://www.w3.org/2000/svg">
<g clip-path="url(#clip0_2204_3236)">
<path d="M26.8056 37.6754H20.3241L20 3.97168L43.9815 23.7402V4.29575H50.463V37.6754L26.8056 18.555V37.6754Z" fill="#040707"></path>
<path d="M97.4531 3.97168V37.6754H103.935V17.2587L115.277 25.6846L125.972 17.2587V37.6754H132.453V3.97168L115.277 17.2587L97.4531 3.97168Z" fill="#040707"></path>
<path d="M145.741 37.6762H139.26L155.788 3.64844L173.288 37.6762H165.51L156.112 17.2595L145.741 37.6762Z" fill="#040707"></path>
<path d="M88.0547 20.5005C88.0547 12.6253 81.6706 6.24121 73.7954 6.24121C65.9202 6.24121 59.5361 12.6253 59.5361 20.5005C59.5361 28.3756 65.9202 34.7597 73.7954 34.7597C81.6706 34.7597 88.0547 28.3756 88.0547 20.5005Z" stroke="#040707" stroke-width="6.48148"></path>
<path fill-rule="evenodd" clip-rule="evenodd" d="M179.443 37.676V4.29639H194.675C200.184 4.62046 209.582 7.21305 209.582 19.8519C209.582 29.8982 204.527 37.676 194.675 37.676H179.443ZM185.925 30.8705V10.1297H195.097C198.564 10.4538 204.073 11.942 204.073 19.7953C204.073 26.0377 201.029 30.8705 195.097 30.8705H185.925Z" fill="#040707"></path>
</g>
<defs>
<clipPath id="clip0_2204_3236">
<rect width="189.907" height="35" fill="white" transform="translate(20 3)"></rect>
</clipPath>
</defs>
</svg>