<svg width="180" height="40" viewBox="0 0 180 40" fill="none" xmlns="http://www.w3.org/2000/svg">
<g clip-path="url(#clip0_2204_3269)">
<path fill-rule="evenodd" clip-rule="evenodd" d="M104.515 22.8918H117.4C117.475 21.3094 116.903 17.5571 114.009 15.2062C111.975 13.85 109.262 13.2363 106.324 14.0759C104.741 14.5281 102.39 15.794 101.124 19.9533C99.5417 25.1524 104.515 29.2213 107.454 29.8994C108.132 30.1255 113.331 30.5775 116.27 26.5087L113.557 24.7003C113.18 25.3031 111.975 26.5991 110.166 26.9608C107.906 27.4129 104.741 26.0563 104.515 22.8918ZM104.515 20.1793H113.557C113.406 19.2751 112.607 17.3311 110.618 16.7886C108.629 16.2461 106.926 16.8639 106.323 17.2407C105.871 17.542 104.876 18.5517 104.515 20.1793Z" fill="#4E4D4D"></path>
<path d="M122.373 19.5016V29.4477H118.982V13.8505H122.373V15.8848C124.408 13.3983 126.668 13.3983 128.024 13.6243C132.184 14.3477 133.223 17.6932 133.223 19.2755V29.4477H129.833V19.5016C129.833 18.6728 129.155 16.9698 126.442 16.789C123.729 16.6082 122.599 18.5221 122.373 19.5016Z" fill="#4E4D4D"></path>
<path d="M87.3355 12.7196C91.8565 11.8155 94.343 14.0006 95.0211 15.2062C95.6993 14.5282 96.8295 13.624 97.7337 12.7196C94.1169 8.56027 88.6167 8.80142 86.6574 9.32897C78.7457 11.8155 78.4247 18.3709 78.9717 20.8575C81.4583 32.1599 91.1788 29.6734 91.4048 29.6734C97.5533 28.5884 99.9946 23.57 99.9946 21.0836V17.4668H89.3704V21.0836H96.1518C94.5695 26.2827 90.2746 26.2827 89.5964 26.2827C84.8494 26.5087 82.8145 22.6659 82.5885 20.4055C82.4077 15.342 85.6781 13.1718 87.3355 12.7196Z" fill="#4E4D4D"></path>
<path fill-rule="evenodd" clip-rule="evenodd" d="M150.855 29.4478V9.55566H147.916L147.69 15.885C147.012 15.0562 145.068 13.4437 142.717 13.6245C139.778 13.8506 136.84 14.3027 135.031 19.5018C133.223 24.7009 137.292 28.0916 138.196 28.5437C138.27 28.5805 138.363 28.6323 138.474 28.6943C139.732 29.394 143.329 31.3955 147.69 27.8655V29.4478H150.855ZM142.943 17.0152C140.196 17.0152 137.97 19.2418 137.97 21.9883C137.97 24.7348 140.196 26.9614 142.943 26.9614C145.689 26.9614 147.916 24.7348 147.916 21.9883C147.916 19.2418 145.689 17.0152 142.943 17.0152Z" fill="#4E4D4D"></path>
<path fill-rule="evenodd" clip-rule="evenodd" d="M154.246 17.9189V15.2063C154.623 14.6789 156.326 13.3979 159.219 13.3979C162.836 13.3979 165.323 14.3021 165.775 17.6929C165.775 22.5755 165.925 27.5636 166.001 29.4474H162.61V26.9608C162.007 27.9404 160.124 29.8994 157.411 29.8994C156.055 29.8994 153.342 29.4474 152.664 26.0566C152.664 25.929 152.652 25.7783 152.639 25.6088C152.537 24.2772 152.347 21.7836 156.959 20.1794C158.948 19.8177 161.555 19.4259 162.61 19.2752C162.685 18.4464 162.294 16.653 160.124 16.1105C158.767 15.8845 156.507 15.8845 154.246 17.9189ZM162.61 21.7617V24.0222C162.459 24.851 161.661 26.6444 159.672 27.1869C158.541 27.4129 156.733 27.4129 156.281 25.1524C156.281 25.0667 156.277 24.9749 156.272 24.8782C156.232 23.9563 156.171 22.6016 159.445 21.9878C161.254 21.8069 162.309 21.7617 162.61 21.7617Z" fill="#4E4D4D"></path>
<path fill-rule="evenodd" clip-rule="evenodd" d="M66.9909 26.5092C63.2458 26.5092 60.2095 23.473 60.2095 19.7277C60.2095 15.9824 63.2458 12.9463 66.9909 12.9463C70.7361 12.9463 73.7724 15.9824 73.7724 19.7277C73.7724 21.4531 73.1281 23.028 72.0671 24.2248L70.5146 21.5361L67.3824 23.3445L69.0294 26.1974C68.3861 26.4 67.7012 26.5092 66.9909 26.5092ZM71.0951 29.775C69.8287 30.2927 68.4431 30.578 66.9909 30.578C60.9984 30.578 56.1406 25.7202 56.1406 19.7277C56.1406 13.7353 60.9984 8.87744 66.9909 8.87744C72.9835 8.87744 77.8412 13.7353 77.8412 19.7277C77.8412 22.9681 76.4207 25.8768 74.1684 27.865L75.3081 29.8392L72.176 31.6476L71.0951 29.775Z" fill="#4E4D4D"></path>
<path fill-rule="evenodd" clip-rule="evenodd" d="M15 20.4057C15 10.7928 22.7927 3 32.4057 3C42.0187 3 49.8114 10.7928 49.8114 20.4057C49.8114 30.0186 42.0187 37.8114 32.4057 37.8114C22.7927 37.8114 15 30.0186 15 20.4057ZM35.3028 27.8688L34.0851 25.8459L37.4801 23.8025L42.6076 32.321L39.2129 34.3645L37.6092 31.7003C36.0262 32.4308 34.2635 32.8383 32.4057 32.8383C25.5393 32.8383 19.9731 27.2721 19.9731 20.4057C19.9731 13.5393 25.5393 7.97305 32.4057 7.97305C39.2721 7.97305 44.8383 13.5393 44.8383 20.4057C44.8383 23.211 43.9092 25.7993 42.3419 27.8796L39.7918 24.0503C40.4154 22.8992 40.7695 21.5808 40.7695 20.1796C40.7695 15.6853 37.126 12.0419 32.6317 12.0419C28.1375 12.0419 24.494 15.6853 24.494 20.1796C24.494 24.674 28.1375 28.3174 32.6317 28.3174C33.5675 28.3174 34.4662 28.1595 35.3028 27.8688ZM37.3928 18.0486C37.7141 17.6663 37.6646 17.0959 37.2823 16.7747C36.8997 16.4536 36.3295 16.5031 36.0084 16.8855L32.0371 21.6132L30.8975 19.9041C30.6205 19.4887 30.0591 19.3763 29.6437 19.6534C29.2282 19.9304 29.1158 20.4917 29.3929 20.9072L30.8668 23.1181C31.3684 23.8706 32.452 23.9306 33.0337 23.2381L37.3928 18.0486Z" fill="#0267A4"></path>
</g>
<defs>
<clipPath id="clip0_2204_3269">
<rect width="151" height="34.8114" fill="white" transform="translate(15 3)"></rect>
</clipPath>
</defs>
</svg>