<svg width="156" height="29" viewBox="0 0 156 29" fill="none" xmlns="http://www.w3.org/2000/svg">
<path d="M21.8651 9.77278V9.56031C21.8651 6.79839 21.0242 4.46142 19.3422 2.86791C17.45 1.06206 14.6118 0.105991 11.2478 0.105991H0V28.8935H6.41256V19.5456H10.0918L15.558 28.8935H22.8113L16.5039 18.2709C18.9217 17.1024 21.8651 14.7656 21.8651 9.77278ZM15.4525 9.87901C15.4525 12.5347 13.6655 14.128 10.7222 14.128H6.41214V5.73606H10.7222C13.7707 5.73606 15.4525 7.11701 15.4525 9.87901ZM111.955 0L101.232 28.8939H107.645L109.852 22.7326H119.839L122.046 28.8939H128.669L117.947 0H111.955ZM117.842 17.315H111.745L114.793 8.4983L117.842 17.315ZM147.276 14.2344L155.79 0.212427H148.747L143.702 9.34788L138.761 0.212427H131.402L139.812 14.3408L130.982 28.9999H138.025L143.386 19.3333L148.748 28.9999H156.001L147.276 14.2344ZM35.0041 23.3698V17.2086H46.4625V11.6849H35.0041V5.7361H47.9341V0.106037H28.6968V28.8935H40.6805L43.6239 23.3698H35.0041ZM89.6659 0.106037L83.2533 9.45387L76.7359 0.106037H76.6306L70.1131 12.6409V28.8935H76.3151V11.0474L83.0427 19.8641V19.9703H83.3582L90.1911 11.0472V28.8934H96.3932V0.105876L89.6659 0.106037Z" fill="#DC1C2E"></path>
<path d="M62.2441 0.102905L47.2119 28.8901H54.9908L70.023 0.102905H62.2441Z" fill="#003DA5"></path>
</svg>