<svg width="227" height="40" viewBox="0 0 227 40" fill="none" xmlns="http://www.w3.org/2000/svg">
<g clip-path="url(#clip0_2204_3176)">
<path d="M24.0669 5.18079C23.7677 5.07405 23.4587 4.96323 23.1368 4.86656C18.0233 3.30305 15.1788 5.86316 14.4229 8.50469C13.3872 12.1137 15.1527 14.5864 19.7279 18.2245C25.3363 22.682 27.6578 26.8216 26.0314 32.5006C25.5516 34.1812 24.749 35.6884 23.6492 36.9355C28.1819 35.0299 31.8704 31.0885 33.3673 25.8643C35.7854 17.4376 31.6694 8.62259 24.0669 5.18079Z" fill="#FF9700"></path>
<path d="M16.1152 21.5497C10.6468 17.4533 7.80555 13.0261 9.36446 7.58427C9.59825 6.77719 9.90829 6.02729 10.289 5.33594C6.0957 7.34846 2.73142 11.1415 1.31394 16.0785C-0.165555 21.2327 0.801511 26.5291 3.51114 30.6598C5.38089 33.0201 7.191 34.7927 10.8653 35.8389C15.8408 37.257 19.8523 35.2869 20.9687 31.3871C22.0065 27.7771 20.5998 25.1056 16.1152 21.5497Z" fill="#2B3D52"></path>
<path d="M49.1504 19.0474C47.6772 18.0315 46.6452 17.124 46.0547 16.3253C45.4639 15.5269 45.1689 14.5905 45.1689 13.5161C45.1689 12.4271 45.4154 11.567 45.9091 10.9355C46.4022 10.3041 47.1075 9.98821 48.0247 9.98821C48.8585 9.98821 49.6401 10.148 50.37 10.4674C51.0995 10.7869 51.7977 11.1501 52.465 11.5564L54.3411 6.80891C52.1869 5.44444 49.9428 4.7618 47.6081 4.7618C45.162 4.7618 43.2129 5.56044 41.7608 7.15717C40.3085 8.75445 39.5826 10.9176 39.5826 13.6468C39.5826 15.0698 39.7665 16.3182 40.1352 17.3924C40.5032 18.4669 41.0244 19.436 41.6986 20.2997C42.3725 21.1637 43.3628 22.0674 44.6691 23.0109C46.17 24.0854 47.2469 25.0619 47.9002 25.94C48.5532 26.8187 48.8799 27.7875 48.8799 28.8473C48.8799 29.9218 48.6055 30.7711 48.0567 31.3952C47.5076 32.0195 46.6914 32.3316 45.6075 32.3316C43.7034 32.3316 41.612 31.555 39.333 30.0016V35.8597C41.1951 36.9486 43.4533 37.4929 46.1077 37.4929C48.8176 37.4929 50.8919 36.7019 52.3302 35.1193C53.7685 33.537 54.4876 31.2576 54.4876 28.2812C54.4876 26.4231 54.0947 24.7681 53.3097 23.3159C52.5236 21.8643 51.1375 20.4413 49.1504 19.0474ZM57.9471 37.0572H63.492V12.7975H57.9471V37.0572ZM60.7612 3.34614C59.8023 3.34614 59.0551 3.62579 58.5202 4.18454C57.9851 4.74356 57.7178 5.50217 57.7178 6.46037C57.7178 7.44771 57.9957 8.2134 58.5516 8.75799C59.1073 9.3023 59.844 9.5746 60.7612 9.5746C61.6367 9.5746 62.3523 9.3023 62.9083 8.75799C63.464 8.21367 63.7421 7.44798 63.7421 6.46037C63.7421 5.50217 63.4711 4.74356 62.9291 4.18454C62.3872 3.62579 61.6644 3.34614 60.7612 3.34614ZM90.612 12.3403C87.9992 12.3403 86.1023 13.7415 84.9212 16.5431H84.7128C83.7676 13.7415 81.8778 12.3403 79.0429 12.3403C77.9449 12.3403 76.9129 12.627 75.9475 13.2005C74.9814 13.7742 74.2205 14.6779 73.6648 15.9117H73.3104L72.6433 12.7975H68.245V37.0572H73.7898V25.4066C73.7898 22.5031 74.0608 20.4195 74.6028 19.1566C75.1448 17.8935 76.0132 17.262 77.2085 17.262C78.9178 17.262 79.7724 19.0406 79.7724 22.5973V37.0572H85.359V25.2759C85.359 22.4743 85.6229 20.438 86.1511 19.1675C86.6791 17.8973 87.5546 17.262 88.7776 17.262C90.459 17.262 91.2999 19.0406 91.2999 22.5973V37.0572H96.8865V21.2252C96.8865 18.3218 96.3548 16.1151 95.2917 14.605C94.2286 13.0951 92.6686 12.3403 90.612 12.3403ZM101.41 37.0572H106.955V12.7975H101.41V37.0572ZM104.224 3.34614C103.265 3.34614 102.518 3.62579 101.983 4.18454C101.448 4.74356 101.181 5.50217 101.181 6.46037C101.181 7.44771 101.458 8.2134 102.014 8.75799C102.57 9.3023 103.307 9.5746 104.224 9.5746C105.1 9.5746 105.815 9.3023 106.371 8.75799C106.927 8.21367 107.205 7.44798 107.205 6.46037C107.205 5.50217 106.934 4.74356 106.392 4.18454C105.85 3.62579 105.127 3.34614 104.224 3.34614ZM111.708 37.0572H117.252V3.17188H111.708V37.0572ZM129.801 12.2964C127.091 12.2964 124.583 13.0586 122.276 14.5832L124.194 18.5903C126 17.4578 127.599 16.8917 128.988 16.8917C130.864 16.8917 131.802 18.0242 131.802 20.2888V22.031L128.717 22.1617C126.049 22.2924 124.044 22.9783 122.703 24.2197C121.362 25.461 120.692 27.3592 120.692 29.9144C120.692 32.2956 121.182 34.1538 122.161 35.4894C123.141 36.8252 124.485 37.4929 126.195 37.4929C127.529 37.4929 128.634 37.2242 129.509 36.6872C130.385 36.1502 131.232 35.1702 132.052 33.7472H132.177L133.282 37.0572H137.347V20.7681C137.347 18.0677 136.704 15.9809 135.419 14.5072C134.134 13.0335 132.261 12.2964 129.801 12.2964ZM131.802 27.7366C131.802 29.3192 131.5 30.5859 130.896 31.5367C130.291 32.4879 129.481 32.9633 128.467 32.9633C127.105 32.9633 126.424 31.9615 126.424 29.958C126.424 28.6077 126.719 27.5918 127.31 26.9091C127.901 26.2267 128.828 25.8496 130.093 25.7766L131.803 25.6895L131.802 27.7366ZM149.208 13.3203C148.486 13.9735 147.819 15.0624 147.207 16.5867H147.02L146.394 12.7975H141.829V37.0572H147.374V24.5788C147.374 22.4593 147.735 20.844 148.458 19.7333C149.18 18.6227 150.216 18.0674 151.564 18.0674C152.189 18.0674 152.696 18.1402 153.086 18.2853L153.732 12.6668C153.078 12.4489 152.411 12.34 151.731 12.34C150.772 12.3403 149.931 12.6668 149.208 13.3203ZM179.038 23.1852C178.816 24.5647 178.461 27.4028 177.975 31.7001C177.725 28.7967 177.384 26.0018 176.954 23.3159L173.702 5.21898H167.823L164.572 23.3159C164.266 24.9856 163.939 27.766 163.592 31.6566C163.147 27.8096 162.793 24.9856 162.529 23.1852L159.798 5.21898H154.232L159.756 37.0572H166.844L169.741 20.4631L170.596 13.9082L170.763 12.2967C170.957 15.4039 171.284 18.0969 171.742 20.376L174.723 37.0572H181.811L187.293 5.21898H181.686L179.038 23.1852ZM197.174 12.3403C194.464 12.3403 192.351 13.4657 190.837 15.7156C189.322 17.9662 188.565 21.0945 188.565 25.1016C188.565 29.0507 189.402 32.1028 191.077 34.2589C192.751 36.4149 195.04 37.4929 197.945 37.4929C200.433 37.4929 202.566 36.9342 204.345 35.8161V31.0469C202.455 32.2229 200.606 32.8108 198.8 32.8108C197.382 32.8108 196.27 32.2847 195.465 31.2321C194.659 30.1796 194.235 28.5717 194.193 26.4084H205.345V23.3159C205.345 19.8461 204.616 17.1495 203.157 15.2258C201.697 13.302 199.703 12.3403 197.174 12.3403ZM194.276 22.2052C194.36 20.3615 194.658 19.0006 195.173 18.1219C195.687 17.2438 196.34 16.8043 197.132 16.8043C197.98 16.8043 198.647 17.2617 199.133 18.1764C199.619 19.091 199.876 20.434 199.904 22.2052H194.276ZM224.481 15.6285C223.272 13.4365 221.612 12.3403 219.499 12.3403C218.471 12.3403 217.561 12.609 216.769 13.146C215.976 13.6832 215.24 14.6197 214.559 15.9553H214.267C214.434 13.7775 214.524 12.5075 214.538 12.1442C214.552 11.7815 214.559 11.433 214.559 11.0989V3.17188H209.014V37.0572H213.1L214.038 34.2915H214.392C215.101 35.482 215.855 36.3133 216.654 36.7849C217.453 37.2566 218.374 37.4926 219.416 37.4926C221.57 37.4926 223.255 36.3967 224.471 34.2044C225.687 32.0124 226.295 28.9053 226.295 24.8838C226.295 20.9061 225.69 17.8208 224.481 15.6285ZM217.623 32.5058C216.539 32.5058 215.757 31.9324 215.278 30.7855C214.798 29.6389 214.559 27.6571 214.559 24.8402V24.2523C214.586 21.6538 214.833 19.839 215.299 18.8081C215.764 17.7775 216.525 17.262 217.581 17.262C219.61 17.262 220.625 19.7739 220.625 24.7969C220.625 29.9362 219.624 32.5058 217.623 32.5058Z" fill="#2B3D52"></path>
</g>
<defs>
<clipPath id="clip0_2204_3176">
<rect width="227" height="40" fill="white"></rect>
</clipPath>
</defs>
</svg>