<svg viewBox="0 0 12 12">
                  <path
                    d="M5.87235 2.8208C4.21688 2.8208 2.83887 4.17107 2.83887 5.85428C2.83887 7.53749 4.18914 8.88776 5.87235 8.88776C7.55556 8.88776 8.90582 7.50974 8.90582 5.85428C8.90582 4.19881 7.53706 2.8208 5.87235 2.8208ZM5.87235 7.79645C4.80878 7.79645 3.93018 6.91785 3.93018 5.85428C3.93018 4.79071 4.80878 3.91211 5.87235 3.91211C6.93591 3.91211 7.81451 4.79071 7.81451 5.85428C7.81451 6.91785 6.94516 7.79645 5.87235 7.79645Z"
                  ></path>
                  <path
                    d="M10.8114 0.971083C10.1917 0.332943 9.31315 0 8.31432 0H3.43116C1.36876 0 5.51248e-10 1.37801 5.51248e-10 3.44041V8.30507C5.51248e-10 9.3224 0.332943 10.201 0.998828 10.8391C1.63697 11.4588 2.49707 11.764 3.46815 11.764H8.30507C9.3224 11.764 10.1825 11.431 10.7929 10.8391C11.431 10.2195 11.764 9.34089 11.764 8.32357V3.44041C11.7547 2.44158 11.4218 1.59073 10.8114 0.971083ZM10.7097 8.32357C10.7097 9.05419 10.4507 9.65534 10.0253 10.053C9.59985 10.4507 9.00795 10.6727 8.29582 10.6727H3.4589C2.74678 10.6727 2.15488 10.4599 1.72945 10.053C1.30403 9.62759 1.09131 9.0357 1.09131 8.29582V3.44041C1.09131 2.72828 1.30403 2.13638 1.72945 1.71096C2.13638 1.30403 2.74678 1.09131 3.4589 1.09131H8.34206C9.05419 1.09131 9.64609 1.30403 10.0715 1.72945C10.4784 2.15488 10.7097 2.74678 10.7097 3.44041V8.32357Z"
                  ></path>
                  <path
                    d="M9.02716 3.43078C9.40513 3.43078 9.71154 3.12437 9.71154 2.74639C9.71154 2.36842 9.40513 2.06201 9.02716 2.06201C8.64918 2.06201 8.34277 2.36842 8.34277 2.74639C8.34277 3.12437 8.64918 3.43078 9.02716 3.43078Z"
                  ></path>
                </svg>