<svg viewBox="0 0 12 11">
                  <path d="M2.63598 3.40039H0.302246V10.606H2.63598V3.40039Z"
                  ></path>
                  <path
                    d="M9.0341 3.32715C7.69244 3.32715 6.85154 4.03484 6.70036 4.53114V3.40067H4.07373C4.11152 3.99808 4.07373 10.6062 4.07373 10.6062H6.70036V6.70935C6.70036 6.48877 6.69092 6.27739 6.75705 6.12114C6.93657 5.68918 7.32395 5.23883 8.02313 5.23883C8.93962 5.23883 9.3459 5.90057 9.3459 6.88398V10.6154H12.0009V6.59906C12.0009 4.36571 10.697 3.32715 9.0341 3.32715Z"
                  ></path>
                  <path
                    d="M1.4267 0C0.566899 0 0 0.542256 0 1.24995C0 1.94844 0.548003 2.49989 1.39835 2.49989H1.41725C2.29594 2.49989 2.84395 1.94844 2.84395 1.24995C2.82505 0.533065 2.29594 0 1.4267 0Z"
                  ></path>
                </svg>