<svg viewBox="0 0 10 12" >
<path d="M9.66497 2.63589C8.46469 2.63589 7.48814 1.61116 7.48814 0.351575C7.48814 0.157394 7.33815 0 7.15311 0H5.35884C5.17388 0 5.02381 0.157394 5.02381 0.351575V8.07111C5.02381 8.81157 4.44965 9.41399 3.74403 9.41399C3.03837 9.41399 2.46433 8.81157 2.46433 8.07111C2.46433 7.33056 3.03837 6.72813 3.74403 6.72813C3.92907 6.72813 4.07906 6.57074 4.07906 6.37656V4.4937C4.07906 4.29961 3.92907 4.14212 3.74403 4.14212C1.67954 4.14212 0 5.90468 0 8.07111C0 10.2375 1.67954 12 3.74403 12C5.80851 12 7.48814 10.2375 7.48814 8.07111V4.65407C8.15486 5.02715 8.89687 5.2219 9.66497 5.2219C9.85001 5.2219 10 5.0645 10 4.87032V2.98746C10 2.79337 9.85001 2.63589 9.66497 2.63589Z" ></path>
</svg>