<svg viewBox="0 0 12 9" >
<path fill-rule="evenodd" clip-rule="evenodd" d="M11.2981 0.580099C11.0557 0.354178 10.7488 0.206012 10.4131 0.167923C9.68347 0.0840618 8.94722 0.0418499 8.20854 0.0206859C7.47459 -0.000332753 6.73751 -0.000332727 6.00205 0.000102745C5.2667 -0.000332724 4.52966 -0.000332749 3.79562 0.0206859C3.05685 0.0418497 2.32039 0.0840614 1.59034 0.167923C1.25497 0.206031 0.948167 0.354265 0.706032 0.580283C0.465436 0.80485 0.288666 1.10645 0.211336 1.45314C0.10694 1.91786 0.0541295 2.40273 0.0274511 2.8906C0.000668946 3.38055 -8.33713e-08 3.86428 -8.33713e-08 4.3339C-8.33713e-08 4.80289 9.40103e-06 5.28599 0.0261601 5.77623C0.0521883 6.26389 0.104358 6.74874 0.208809 7.21354C0.286602 7.56038 0.463456 7.86206 0.704034 8.08662C0.946025 8.31251 1.25253 8.46065 1.5878 8.49876C2.31794 8.58261 3.0544 8.62483 3.79317 8.64598C4.5272 8.667 5.26425 8.667 5.9997 8.66656C6.73549 8.667 7.47252 8.667 8.20645 8.64598C8.94511 8.62483 9.68136 8.58261 10.4114 8.49876C10.7466 8.46065 11.0531 8.31256 11.2952 8.08673C11.5359 7.86219 11.713 7.56048 11.7913 7.21354C11.8952 6.74872 11.9474 6.26387 11.9735 5.77623C11.9993 5.29535 11.9995 4.80751 11.9995 4.3339H12V4.31012H11.9995C11.9995 3.36912 11.9995 2.37248 11.7938 1.45315C11.716 1.1063 11.5389 0.804646 11.2981 0.580105L11.2981 0.580099ZM4.35737 6.20495V2.2169V2.00118L4.54387 2.10117C5.10879 2.40405 5.67209 2.70589 6.23589 3.008C6.91414 3.37143 7.59321 3.73531 8.27686 4.10195L8.49363 4.2182L8.27636 4.33392L6.40987 5.32787C5.78861 5.65862 5.16732 5.98929 4.54337 6.32119L4.35737 6.42013V6.20495Z" ></path>
</svg>