<?xml version="1.0"?>
<svg width="62" height="62" viewBox="0 0 62 62" fill="none" xmlns="http://www.w3.org/2000/svg">
<g clip-path="url(#clip0_3615_4542)">
<path d="M58.0653 4H44.3047C43.788 3.99994 43.2764 4.10338 42.799 4.3044C42.3217 4.50543 41.888 4.8001 41.5228 5.17157L9.04322 38.1859C8.67777 38.5572 8.38788 38.998 8.19011 39.4832C7.99234 39.9683 7.89057 40.4884 7.89063 41.0135V55.0007C7.89059 55.5259 7.99234 56.046 8.19005 56.5312C8.38777 57.0164 8.67757 57.4573 9.04292 57.8287C9.40828 58.2001 9.84202 58.4947 10.3194 58.6956C10.7967 58.8966 11.3084 59 11.8251 59H25.5857C26.1024 59.0001 26.614 58.8966 27.0913 58.6956C27.5686 58.4946 28.0023 58.1999 28.3675 57.8284L60.8476 24.8141C61.5854 24.0641 61.9998 23.047 61.9997 21.9865V7.99927C61.9997 7.47407 61.898 6.95401 61.7003 6.46879C61.5026 5.98357 61.2128 5.54268 60.8474 5.17131C60.4821 4.79994 60.0483 4.50535 59.571 4.30438C59.0936 4.1034 58.582 3.99998 58.0653 4Z" fill="#28A8EA"/>
<path d="M58.0657 59H44.3048C43.2614 59 42.2607 58.5787 41.5229 57.8287L34.9453 51.1429V38.65C34.9453 36.7537 35.6864 34.9351 37.0056 33.5942C38.3247 32.2533 40.1139 31.5 41.9795 31.5H54.27L60.8476 38.1859C61.5853 38.9359 61.9998 39.953 61.9999 41.0136V55.001C61.9999 56.0616 61.5854 57.0788 60.8476 57.8287C60.1098 58.5787 59.1091 59 58.0657 59Z" fill="#0078D4"/>
<path d="M11.8248 4H25.5857C26.6291 4 27.6298 4.42132 28.3676 5.17127L34.9452 11.8571V24.35C34.9452 26.2463 34.2041 28.0649 32.8849 29.4058C31.5657 30.7467 29.7766 31.5 27.911 31.5H15.6205L9.04292 24.8141C8.30512 24.0642 7.89063 23.047 7.89062 21.9864V7.99896C7.89063 6.93837 8.30512 5.92122 9.04292 5.17127C9.78072 4.42132 10.7814 4 11.8248 4Z" fill="#50D9FF"/>
<path opacity="0.2" d="M32.6906 18.1283V48.3093C32.6931 48.4633 32.678 48.6171 32.6455 48.7676C32.543 49.3874 32.2271 49.9501 31.7543 50.3552C31.2815 50.7603 30.6824 50.9815 30.064 50.9792H7.89062V15.4584H30.064C30.4091 15.4578 30.7509 15.5264 31.0699 15.6604C31.3888 15.7943 31.6786 15.991 31.9226 16.239C32.1667 16.487 32.3601 16.7816 32.4919 17.1058C32.6237 17.43 32.6912 17.7775 32.6906 18.1283Z" fill="black"/>
<path opacity="0.1" d="M33.8179 18.1282V46.0176C33.8086 47.0267 33.4101 47.9917 32.7081 48.7053C32.0061 49.4188 31.0567 49.8239 30.064 49.8333H7.89062V14.3125H30.064C31.0585 14.316 32.0113 14.7192 32.7146 15.434C33.4178 16.1488 33.8144 17.1173 33.8179 18.1282Z" fill="black"/>
<path opacity="0.2" d="M32.6906 18.1283V46.0177C32.6912 46.3685 32.6237 46.7159 32.4919 47.0401C32.3601 47.3643 32.1667 47.6589 31.9226 47.9069C31.6786 48.155 31.3888 48.3516 31.0699 48.4856C30.7509 48.6195 30.4091 48.6882 30.064 48.6875H7.89062V15.4584H30.064C30.4091 15.4578 30.7509 15.5264 31.0699 15.6604C31.3888 15.7943 31.6786 15.991 31.9226 16.239C32.1667 16.487 32.3601 16.7816 32.4919 17.1058C32.6237 17.43 32.6912 17.7775 32.6906 18.1283Z" fill="black"/>
<path opacity="0.1" d="M31.5634 18.1283V46.0177C31.564 46.3685 31.4964 46.7159 31.3646 47.0401C31.2329 47.3643 31.0394 47.6589 30.7954 47.9069C30.5514 48.155 30.2616 48.3516 29.9426 48.4856C29.6237 48.6195 29.2818 48.6882 28.9367 48.6875H7.89062V15.4584H28.9367C29.2818 15.4578 29.6237 15.5264 29.9426 15.6604C30.2616 15.7943 30.5514 15.991 30.7954 16.239C31.0394 16.487 31.2329 16.7816 31.3646 17.1058C31.4964 17.43 31.564 17.7775 31.5634 18.1283Z" fill="black"/>
<path d="M28.9333 15.4584H2.6303C1.17763 15.4584 0 16.6554 0 18.132V44.8681C0 46.3447 1.17763 47.5417 2.6303 47.5417H28.9333C30.386 47.5417 31.5636 46.3447 31.5636 44.8681V18.132C31.5636 16.6554 30.386 15.4584 28.9333 15.4584Z" fill="#0078D4"/>
<path d="M20.9504 25.6347H13.5699V30.0216H20.4974V32.8332H13.5699V37.3897H21.3437V40.1894H10.2197V22.8105H20.9503L20.9504 25.6347Z" fill="white"/>
</g>
<defs>
<clipPath id="clip0_3615_4542">
<rect width="62" height="55" fill="white" transform="translate(0 4)"/>
</clipPath>
</defs>
</svg>
