<?xml version="1.0"?>
<svg width="64" height="64" viewBox="0 0 64 64" fill="none" xmlns="http://www.w3.org/2000/svg">
<g clip-path="url(#clip0_3571_4481)">
<path d="M32.7502 0C23.0002 0 14.3502 4.25 8.5002 11C6.7002 13.05 5.2002 15.35 3.9502 17.8L14.7502 26.05C16.0002 22.25 18.4002 19 21.5502 16.7C24.6502 14.4 28.5502 13.1 32.7002 13.1C37.2002 13.1 41.3002 14.7 44.5002 17.3L53.8502 8C48.1502 3.05 40.9002 0 32.7502 0Z" fill="#E3443A"/>
<path d="M13.8004 32C13.8004 31.7 13.8004 31.4 13.8504 31.1C13.9504 29.35 14.2504 27.65 14.8004 26.05L3.95039 17.8C1.95039 21.8 0.800391 26.35 0.700391 31.1C0.700391 31.4 0.650391 31.7 0.650391 32C0.650391 32.3 0.650391 32.6001 0.700391 32.9001C0.850391 37.6501 2.00039 42.1501 3.95039 46.1501L14.7504 37.9001C14.2504 36.3001 13.9004 34.6 13.8504 32.85C13.8004 32.6 13.8004 32.3 13.8004 32Z" fill="#F7B92B"/>
<path d="M43.3502 48.0999C40.4502 49.8999 36.8002 50.9 32.7002 50.9C30.3002 50.9 28.0002 50.45 25.9002 49.65C24.3502 49.05 22.9002 48.2499 21.5502 47.2999C18.4002 44.9499 16.0002 41.75 14.7502 37.95L3.9502 46.15C5.1502 48.6 6.7002 50.9 8.5002 52.95C14.3502 59.7 23.0002 63.95 32.7502 63.95C35.7002 63.95 38.5502 63.5499 41.3502 62.7999C45.9502 61.5499 50.1502 59.25 53.6502 56L43.3502 48.0999Z" fill="#40A557"/>
<path d="M62.6 26.2H60.7H32.75V31.15V32.9V38.5499H49.95C49.1 42.7499 46.75 45.9999 43.4 48.0999L53.65 56C56.45 53.4 58.8 50.15 60.45 46.4C62.3 42.25 63.35 37.45 63.35 32C63.3 30.1 63.05 28.05 62.6 26.2Z" fill="#4087ED"/>
</g>
<defs>
<clipPath id="clip0_3571_4481">
<rect width="64" height="64" fill="white"/>
</clipPath>
</defs>
</svg>
