<?xml version="1.0"?>
<svg width="62" height="62" viewBox="0 0 62 62" fill="none" xmlns="http://www.w3.org/2000/svg">
<g clip-path="url(#clip0_3562_4599)">
<path d="M17.3899 48.7974C15.6269 48.7974 14.1895 50.1672 14.1895 51.867C14.1895 53.0223 14.8567 54.0124 15.8496 54.5406L28.223 61.1577C29.2046 61.7098 30.3123 61.9996 31.4391 61.9992C32.1924 61.9992 32.9115 61.8674 33.5788 61.6362L37.8057 60.4647V48.7812C37.8232 48.7974 17.4068 48.7974 17.3899 48.7974Z" fill="url(#paint0_linear_3562_4599)"/>
<path d="M17.3899 48.7974C15.6269 48.7974 14.1895 50.1672 14.1895 51.867C14.1895 53.0223 14.8567 54.0124 15.8496 54.5406L28.223 61.1577C29.2046 61.7098 30.3123 61.9996 31.4391 61.9992C32.1924 61.9992 32.9115 61.8674 33.5788 61.6362L37.8057 60.4647V48.7812C37.8232 48.7974 17.4068 48.7974 17.3899 48.7974Z" fill="url(#paint1_linear_3562_4599)"/>
<path d="M33.3067 0.248498C32.7222 0.0819804 32.1171 -0.00129197 31.5094 0.00115085C30.4997 0.00115085 29.49 0.199416 28.5826 0.661174C28.395 0.743838 8.45681 11.5522 8.45681 11.5522C8.18304 11.6846 7.92609 11.8493 7.68662 12.0146C7.65297 12.0308 7.63549 12.0475 7.60119 12.0643C7.44715 12.1793 7.30994 12.2949 7.15655 12.4105C7.08795 12.4602 7.01934 12.5267 6.96821 12.5758C6.88278 12.6578 6.7967 12.7405 6.72874 12.8232C6.48927 13.0705 6.07829 13.5981 6.07829 13.5981C5.37319 14.5984 4.99645 15.7923 5.00003 17.0152V45.7281C5.00003 47.4285 6.43749 48.7983 8.20051 48.7983C8.64515 48.7983 9.05613 48.7156 9.43281 48.5503L15.1315 45.4646C16.158 44.9699 16.98 44.1278 17.4078 43.088C17.5101 42.8736 17.5955 42.6101 17.6473 42.3453C17.6641 42.2795 17.6816 42.1968 17.6816 42.1309C17.6816 42.0986 17.6984 42.0489 17.6984 42.016C17.7159 41.8997 17.7327 41.768 17.7327 41.653C17.7327 41.5536 17.7502 41.4709 17.7502 41.3721V26.0908V21.3215C17.7502 19.9846 18.3489 18.7802 19.2906 17.9387C19.7352 17.5428 20.317 17.196 21.0018 16.9654C21.6859 16.7174 37.876 11.0743 37.876 11.0743V1.5524L33.3067 0.248498Z" fill="url(#paint2_linear_3562_4599)"/>
<path d="M33.3067 0.248498C32.7222 0.0819804 32.1171 -0.00129197 31.5094 0.00115085C30.4997 0.00115085 29.49 0.199416 28.5826 0.661174C28.395 0.743838 8.45681 11.5522 8.45681 11.5522C8.18304 11.6846 7.92609 11.8493 7.68662 12.0146C7.65297 12.0308 7.63549 12.0475 7.60119 12.0643C7.44715 12.1793 7.30994 12.2949 7.15655 12.4105C7.08795 12.4602 7.01934 12.5267 6.96821 12.5758C6.88278 12.6578 6.7967 12.7405 6.72874 12.8232C6.48927 13.0705 6.07829 13.5981 6.07829 13.5981C5.37319 14.5984 4.99645 15.7923 5.00003 17.0152V45.7281C5.00003 47.4285 6.43749 48.7983 8.20051 48.7983C8.64515 48.7983 9.05613 48.7156 9.43281 48.5503L15.1315 45.4646C16.158 44.9699 16.98 44.1278 17.4078 43.088C17.5101 42.8736 17.5955 42.6101 17.6473 42.3453C17.6641 42.2795 17.6816 42.1968 17.6816 42.1309C17.6816 42.0986 17.6984 42.0489 17.6984 42.016C17.7159 41.8997 17.7327 41.768 17.7327 41.653C17.7327 41.5536 17.7502 41.4709 17.7502 41.3721V26.0908V21.3215C17.7502 19.9846 18.3489 18.7802 19.2906 17.9387C19.7352 17.5428 20.317 17.196 21.0018 16.9654C21.6859 16.7174 37.876 11.0743 37.876 11.0743V1.5524L33.3067 0.248498Z" fill="url(#paint3_linear_3562_4599)"/>
<path d="M51.5335 5.39338L33.5811 0.328247C36.1822 1.30214 37.8074 3.49662 37.8074 6.17029C37.8074 6.17029 37.7912 54.7356 37.8074 55.9071C37.8249 58.5472 36.0793 60.8082 33.5811 61.6497C34.1286 61.5012 51.5335 56.6659 51.5335 56.6659C54.1172 55.8742 55.9832 53.5634 55.9832 50.8084V11.2509C56 8.51266 54.1172 6.18515 51.5335 5.39338Z" fill="url(#paint4_linear_3562_4599)"/>
</g>
<defs>
<linearGradient id="paint0_linear_3562_4599" x1="15.9654" y1="53.836" x2="60.4464" y2="57.8723" gradientUnits="userSpaceOnUse">
<stop stop-color="#F32B44"/>
<stop offset="0.6" stop-color="#A4070A"/>
</linearGradient>
<linearGradient id="paint1_linear_3562_4599" x1="46.1082" y1="56.3793" x2="26.3611" y2="54.5872" gradientUnits="userSpaceOnUse">
<stop stop-opacity="0.4"/>
<stop offset="1" stop-opacity="0"/>
</linearGradient>
<linearGradient id="paint2_linear_3562_4599" x1="33.9552" y1="-2.13779" x2="1.27816" y2="46.2601" gradientUnits="userSpaceOnUse">
<stop stop-color="#800600"/>
<stop offset="0.6" stop-color="#C72127"/>
<stop offset="0.728" stop-color="#C13959"/>
<stop offset="0.847" stop-color="#BC4B81"/>
<stop offset="0.942" stop-color="#B95799"/>
<stop offset="1" stop-color="#B85BA2"/>
</linearGradient>
<linearGradient id="paint3_linear_3562_4599" x1="34.6574" y1="-3.10522" x2="27.7373" y2="7.14423" gradientUnits="userSpaceOnUse">
<stop stop-opacity="0.4"/>
<stop offset="1" stop-opacity="0"/>
</linearGradient>
<linearGradient id="paint4_linear_3562_4599" x1="44.7947" y1="-3.15528" x2="44.7947" y2="57.3369" gradientUnits="userSpaceOnUse">
<stop stop-color="#FFB900"/>
<stop offset="0.166" stop-color="#EF8400"/>
<stop offset="0.313" stop-color="#E25C01"/>
<stop offset="0.429" stop-color="#DB4401"/>
<stop offset="0.5" stop-color="#D83B01"/>
</linearGradient>
<clipPath id="clip0_3562_4599">
<rect width="51" height="62" fill="white" transform="translate(5)"/>
</clipPath>
</defs>
</svg>
