<svg xmlns="http://www.w3.org/2000/svg" viewBox="0 0 28.17 28.9"><title>email-sign-manager</title><g id="Layer_2" data-name="Layer 2"><g id="Layer_1-2" data-name="Layer 1"><path d="M6.63,21.28a3.21,3.21,0,1,0-3.21-3.2A3.2,3.2,0,0,0,6.63,21.28Zm0-4.87A1.67,1.67,0,1,1,5,18.08,1.67,1.67,0,0,1,6.63,16.41Z"/><path d="M20,15.64H11.7a.75.75,0,1,0,0,1.5H20a.75.75,0,1,0,0-1.5Z"/><rect x="10.94" y="19.39" width="8.25" height="1.5" rx="0.75"/><path d="M20,23.14h-15a.75.75,0,0,0,0,1.5H20a.75.75,0,1,0,0-1.5Z"/><path d="M28.07,14.45,23.46,1.21a1.78,1.78,0,0,0-.93-1A1.74,1.74,0,0,0,21.15.11l-19.53,7a1.87,1.87,0,0,0-1,1,1.84,1.84,0,0,0,0,1.42l.68,1.75A1.89,1.89,0,0,0,0,12.94V27A1.88,1.88,0,0,0,1.88,28.9H22.5A1.88,1.88,0,0,0,24.38,27V17.67L27,16.75A1.81,1.81,0,0,0,28.07,14.45Zm-5.19,2.31V27a.38.38,0,0,1-.38.38H1.88A.38.38,0,0,1,1.5,27V12.94a.38.38,0,0,1,.38-.38H22.5a.38.38,0,0,1,.38.38ZM10,11.06H7a.94.94,0,0,1,.07-.37A1.25,1.25,0,0,1,7.83,10l.42-.15a1.29,1.29,0,0,1,1.65.79A1.31,1.31,0,0,1,10,11Zm16.54,4.42-2.13.75V12.94a1.88,1.88,0,0,0-1.88-1.88H18.45l2.37-.85a.75.75,0,0,0-.51-1.41L14,11.06H11.5a2.66,2.66,0,0,0-.15-1A2.84,2.84,0,0,0,7.74,8.35l-.42.15a2.82,2.82,0,0,0-1.68,1.65,2.86,2.86,0,0,0-.16.91H2.62L1.8,8.94a.5.5,0,0,1,0-.36.46.46,0,0,1,.27-.24l19.52-7a.47.47,0,0,1,.35,0,.42.42,0,0,1,.23.26l4.61,13.23A.47.47,0,0,1,26.51,15.48Z"/><path d="M20.46,4.76,12.69,7.54A.75.75,0,1,0,13.19,9L21,6.17a.75.75,0,1,0-.51-1.41Z"/></g></g></svg>